<?xml version="1.0" standalone="no"?><!-- Generator: Gravit.io --><svg xmlns="http://www.w3.org/2000/svg" xmlns:xlink="http://www.w3.org/1999/xlink" style="isolation:isolate" viewBox="0 0 200 200" width="200" height="200"><defs><clipPath id="_clipPath_r98vlcy9JDZBRqgHfcvCZfSWQtXmSQfN"><rect width="200" height="200"/></clipPath></defs><g clip-path="url(#_clipPath_r98vlcy9JDZBRqgHfcvCZfSWQtXmSQfN)"><rect width="200" height="200" style="fill:rgb(195,169,212)"/><g><path d=" M 118.305 96.869 C 116.378 96.869 114.801 98.445 114.801 100.372 L 114.801 101.73 L 121.764 101.73 L 121.764 100.372 C 121.764 98.454 120.222 96.893 118.305 96.869 L 118.305 96.869 Z  M 101.27 120.341 L 79.462 120.341 L 80.951 124.37 L 101.358 124.37 C 101.314 124.063 101.314 123.8 101.314 123.494 L 101.27 120.341 L 101.27 120.341 Z  M 114.801 123.494 C 114.801 123.8 114.757 124.107 114.757 124.37 L 119.049 124.37 L 119.881 122.092 L 120.538 120.341 L 114.845 120.341 L 114.801 123.494 L 114.801 123.494 Z  M 101.27 116.838 L 101.27 112.809 L 76.703 112.809 L 78.192 116.838 L 101.27 116.838 Z  M 114.801 116.838 L 121.764 116.838 L 122.421 115.086 C 122.071 114.385 121.895 113.641 121.808 112.809 L 114.801 112.809 L 114.801 116.838 Z  M 111.605 139.477 L 113.488 139.477 L 114.976 135.449 L 84.98 135.449 L 86.469 139.477 L 111.605 139.477 L 111.605 139.477 Z  M 102.934 127.917 L 82.221 127.917 L 82.878 129.668 L 83.71 131.945 L 116.29 131.945 L 117.779 127.917 L 113.225 127.917 C 111.999 129.362 110.159 130.281 108.101 130.281 C 105.999 130.238 104.16 129.318 102.934 127.917 Z  M 100.044 99.847 C 94.833 99.847 89.753 98.84 84.98 96.913 L 70.923 96.913 L 72.675 101.774 L 77.579 101.774 L 77.579 105.277 L 73.944 105.277 L 74.12 105.802 L 75.39 109.306 L 101.226 109.306 L 101.226 105.277 L 91.942 105.277 L 91.942 101.774 L 101.226 101.774 L 101.226 99.847 L 100.044 99.847 L 100.044 99.847 Z  M 87.958 103.481 L 87.958 105.233 L 82.44 105.233 L 82.44 101.73 L 87.958 101.73 L 87.958 103.481 Z  M 114.801 105.277 L 121.764 105.277 L 121.764 109.306 L 114.801 109.306 L 114.801 105.277 Z  M 103.941 165.621 L 96.015 165.621 L 97.46 169.649 L 102.496 169.649 L 103.941 165.621 Z  M 99.956 176.481 L 101.182 173.153 L 98.774 173.153 L 99.956 176.481 Z  M 106.7 158.088 L 93.256 158.088 L 94.701 162.117 L 105.211 162.117 L 106.7 158.088 Z  M 89.227 147.009 L 110.729 147.009 L 112.218 142.981 L 87.739 142.981 L 89.227 147.009 Z  M 93.826 154.541 L 107.97 154.541 L 109.459 150.513 L 90.497 150.513 L 91.942 154.541 L 93.826 154.541 Z  M 125.311 103.481 L 125.311 112.196 C 125.311 112.371 125.355 112.546 125.355 112.721 C 125.486 113.422 125.837 114.035 126.362 114.473 C 126.888 114.911 127.588 115.217 128.333 115.217 C 129.997 115.217 131.354 113.86 131.354 112.196 L 131.354 96.562 L 131.048 96.562 L 129.603 96.431 C 129.471 96.431 129.384 96.387 129.252 96.387 C 126.537 95.949 123.954 94.942 121.72 93.366 C 121.501 93.497 121.239 93.672 121.02 93.804 C 123.644 94.886 125.356 97.445 125.355 100.285 L 125.355 101.642 L 125.311 103.481 L 125.311 103.481 Z  M 104.773 103.481 L 104.773 123.45 C 104.798 124.488 105.299 125.456 106.131 126.077 C 107.255 126.887 108.772 126.887 109.897 126.077 C 110.51 125.64 110.948 125.026 111.123 124.326 C 111.21 124.063 111.254 123.757 111.254 123.45 L 111.254 100.372 C 111.254 99.584 111.386 98.796 111.648 98.095 C 109.415 98.796 107.094 99.277 104.773 99.54 L 104.773 103.481 L 104.773 103.481 Z " fill="rgb(117,205,232)"/><path d=" M 146.024 79.002 C 146.024 73.397 142.696 68.274 137.529 65.996 L 136.828 65.69 L 136.565 64.989 L 136.434 64.595 L 136.215 63.982 L 136.259 63.588 C 136.39 62.362 136.434 61.136 136.434 59.91 C 136.434 39.853 120.1 23.519 100.044 23.519 C 79.988 23.519 63.654 39.853 63.654 59.91 C 63.654 61.004 63.697 62.143 63.829 63.325 L 63.873 63.719 L 63.654 64.332 C 63.566 64.551 63.478 64.77 63.435 64.989 L 63.172 65.69 L 62.471 65.996 C 57.308 68.26 53.973 73.364 53.976 79.002 C 54 86.568 59.95 92.788 67.507 93.147 L 68.164 93.147 C 68.558 93.147 68.909 93.147 69.259 93.103 C 69.346 93.103 69.478 93.103 69.565 93.059 C 70.047 93.015 70.529 92.928 71.01 92.84 C 71.098 92.796 71.229 92.796 71.317 92.753 C 73.463 92.271 75.477 91.264 77.185 89.862 L 78.236 88.987 L 79.331 89.731 C 81.345 91.132 83.491 92.315 85.724 93.278 C 87.388 93.979 89.096 94.592 90.848 95.03 C 93.826 95.818 96.935 96.212 100.088 96.212 C 100.525 96.212 101.007 96.212 101.445 96.168 C 102.19 96.125 102.934 96.081 103.678 95.993 C 109.809 95.38 115.677 93.234 120.801 89.731 L 121.895 88.987 L 122.903 89.819 C 124.873 91.439 127.15 92.49 129.603 92.884 L 130.478 93.015 C 130.785 93.059 131.048 93.059 131.354 93.059 C 131.529 93.059 131.705 93.103 131.923 93.103 L 132.361 93.103 C 132.624 93.103 132.887 93.103 133.15 93.059 L 134.288 92.928 C 134.507 92.884 134.682 92.884 134.901 92.84 C 141.393 91.404 146.017 85.651 146.024 79.002 L 146.024 79.002 Z  M 103.547 32.059 L 106.656 33.723 L 103.109 40.247 L 101.576 39.415 L 100.044 38.583 L 103.547 32.059 Z  M 76.572 48.568 L 73.857 46.291 L 78.586 40.554 L 79.944 41.693 L 81.301 42.831 L 76.572 48.568 L 76.572 48.568 Z  M 90.103 55.443 L 88.877 56.713 L 83.491 51.589 L 85.943 49.049 L 91.329 54.173 L 90.103 55.443 Z  M 92.03 38.715 L 90.629 39.81 L 86.031 33.985 L 88.79 31.796 L 93.388 37.62 L 92.03 38.715 Z  M 99.912 50.1 L 99.431 48.393 L 98.949 46.685 L 106.131 44.67 L 106.612 46.378 L 107.094 48.086 L 99.912 50.1 Z  M 112.874 58.245 L 111.035 55.224 L 117.385 51.37 L 118.305 52.859 L 119.224 54.348 L 112.874 58.245 L 112.874 58.245 Z  M 123.34 43.619 L 122.465 45.152 L 116.071 41.386 L 117.867 38.364 L 124.26 42.13 L 123.34 43.619 Z " fill="rgb(240,77,161)"/></g></g></svg>