<?xml version="1.0" standalone="no"?><!-- Generator: Gravit.io --><svg xmlns="http://www.w3.org/2000/svg" xmlns:xlink="http://www.w3.org/1999/xlink" style="isolation:isolate" viewBox="0 0 200 200" width="200" height="200"><defs><clipPath id="_clipPath_Jw7TqGldOMBwtKwFcnVCxBrCibfeP1Tc"><rect width="200" height="200"/></clipPath></defs><g clip-path="url(#_clipPath_Jw7TqGldOMBwtKwFcnVCxBrCibfeP1Tc)"><rect width="200" height="200" style="fill:rgb(117,205,232)"/><g><path d=" M 110.729 84.843 C 109.367 86.205 109.367 88.435 110.729 89.797 L 111.689 90.757 L 116.613 85.834 L 115.653 84.874 C 114.297 83.517 112.102 83.504 110.729 84.843 L 110.729 84.843 Z  M 115.281 113.485 L 99.861 128.906 L 103.762 130.702 L 118.192 116.272 C 117.944 116.086 117.758 115.9 117.542 115.684 L 115.281 113.485 L 115.281 113.485 Z  M 127.079 106.147 C 127.295 106.363 127.481 106.611 127.667 106.797 L 130.702 103.762 L 129.68 101.564 L 128.906 99.861 L 124.88 103.886 L 127.079 106.147 L 127.079 106.147 Z  M 112.804 111.008 L 109.955 108.159 L 92.584 125.53 L 96.486 127.326 L 112.804 111.008 Z  M 122.372 101.44 L 127.295 96.516 L 126.521 94.813 C 125.778 94.566 125.128 94.163 124.478 93.637 L 119.523 98.591 L 122.372 101.44 Z  M 136.12 119.709 L 137.452 118.378 L 135.656 114.476 L 114.445 135.687 L 118.347 137.483 L 136.12 119.709 L 136.12 119.709 Z  M 121.815 117.665 L 107.168 132.312 L 108.871 133.086 L 111.07 134.108 L 134.108 111.07 L 132.312 107.168 L 129.091 110.389 C 129.246 112.278 128.596 114.228 127.141 115.684 C 125.623 117.139 123.673 117.789 121.815 117.665 Z  M 99.923 99.861 C 96.238 103.545 91.934 106.425 87.196 108.438 L 77.256 118.378 L 81.932 120.576 L 85.4 117.108 L 87.877 119.585 L 85.307 122.155 L 85.803 122.403 L 89.178 123.982 L 107.447 105.713 L 104.598 102.864 L 98.034 109.429 L 95.557 106.952 L 102.121 100.387 L 100.759 99.025 L 99.923 99.861 L 99.923 99.861 Z  M 93.946 110.977 L 95.185 112.216 L 91.283 116.117 L 88.806 113.64 L 92.708 109.738 L 93.946 110.977 Z  M 114.197 93.265 L 119.121 88.342 L 121.97 91.191 L 117.046 96.114 L 114.197 93.265 Z  M 149.188 143.614 L 143.583 149.219 L 147.454 151.045 L 151.014 147.484 L 149.188 143.614 Z  M 154.049 154.111 L 152.563 150.891 L 150.86 152.594 L 154.049 154.111 Z  M 145.812 136.337 L 136.306 145.843 L 140.177 147.67 L 147.608 140.239 L 145.812 136.337 Z  M 125.623 140.858 L 140.827 125.654 L 139.031 121.753 L 121.722 139.062 L 125.623 140.858 Z  M 134.201 142.933 L 144.202 132.931 L 142.406 129.029 L 128.999 142.437 L 132.869 144.264 L 134.201 142.933 Z  M 120.359 84.564 L 126.521 90.726 C 126.645 90.85 126.8 90.943 126.924 91.067 C 127.512 91.469 128.193 91.655 128.875 91.593 C 129.556 91.531 130.268 91.252 130.794 90.726 C 131.971 89.549 131.971 87.63 130.794 86.453 L 119.74 75.398 L 119.523 75.615 L 118.409 76.544 C 118.316 76.637 118.223 76.668 118.13 76.761 C 115.9 78.371 113.361 79.486 110.667 79.95 C 110.605 80.198 110.544 80.508 110.482 80.755 C 113.103 79.665 116.123 80.264 118.13 82.273 L 119.09 83.233 L 120.359 84.564 L 120.359 84.564 Z  M 105.837 99.087 L 119.957 113.206 C 120.708 113.923 121.747 114.254 122.775 114.104 C 124.142 113.882 125.215 112.809 125.438 111.441 C 125.561 110.698 125.438 109.955 125.066 109.336 C 124.942 109.088 124.756 108.84 124.54 108.624 L 108.221 92.305 C 107.664 91.748 107.199 91.098 106.89 90.416 C 105.806 92.491 104.505 94.473 103.05 96.3 L 105.837 99.087 L 105.837 99.087 Z " fill="rgb(238,187,186)"/><path d=" M 117.696 52.608 C 113.733 48.645 107.757 47.375 102.493 49.419 L 101.78 49.698 L 101.099 49.388 L 100.728 49.202 L 100.139 48.924 L 99.892 48.614 C 99.118 47.654 98.281 46.756 97.414 45.889 C 83.233 31.707 60.133 31.707 45.951 45.889 C 31.769 60.071 31.769 83.171 45.951 97.353 C 46.725 98.127 47.561 98.901 48.49 99.644 L 48.8 99.892 L 49.078 100.48 C 49.171 100.697 49.264 100.913 49.388 101.099 L 49.698 101.78 L 49.419 102.493 C 47.368 107.744 48.62 113.712 52.608 117.696 C 57.975 123.029 66.58 123.22 72.178 118.13 L 72.643 117.665 C 72.921 117.387 73.169 117.139 73.386 116.86 C 73.448 116.798 73.541 116.705 73.572 116.613 C 73.881 116.241 74.16 115.838 74.439 115.436 C 74.47 115.343 74.562 115.25 74.593 115.157 C 75.77 113.299 76.482 111.163 76.699 108.964 L 76.823 107.602 L 78.123 107.354 C 80.539 106.921 82.892 106.239 85.152 105.341 C 86.824 104.66 88.466 103.886 90.014 102.957 C 92.677 101.409 95.154 99.489 97.383 97.26 C 97.693 96.95 98.034 96.609 98.312 96.269 C 98.808 95.711 99.303 95.154 99.768 94.566 C 103.669 89.797 106.301 84.131 107.447 78.03 L 107.695 76.73 L 108.995 76.606 C 111.534 76.358 113.888 75.491 115.9 74.036 L 116.613 73.51 C 116.86 73.324 117.046 73.138 117.263 72.921 C 117.387 72.797 117.542 72.705 117.696 72.55 L 118.006 72.24 C 118.192 72.054 118.378 71.869 118.532 71.652 L 119.245 70.754 C 119.368 70.568 119.492 70.444 119.616 70.258 C 123.191 64.652 122.393 57.315 117.696 52.608 L 117.696 52.608 Z  M 54.466 49.45 L 57.841 48.428 L 59.947 55.55 L 58.275 56.046 L 56.603 56.541 L 54.466 49.45 Z  M 47.066 80.198 L 43.536 80.508 L 42.824 73.107 L 44.589 72.952 L 46.354 72.797 L 47.066 80.198 L 47.066 80.198 Z  M 61.495 75.491 L 61.526 77.256 L 54.095 77.442 L 54.033 73.912 L 61.464 73.726 L 61.495 75.491 Z  M 51.029 62.3 L 50.812 64.065 L 43.443 63.198 L 43.845 59.699 L 51.215 60.566 L 51.029 62.3 Z  M 64.654 64.778 L 63.105 63.911 L 61.557 63.044 L 65.211 56.541 L 66.759 57.408 L 68.308 58.275 L 64.654 64.778 Z  M 79.579 61.371 L 76.142 60.535 L 77.907 53.321 L 79.61 53.723 L 81.313 54.126 L 79.579 61.371 L 79.579 61.371 Z  M 76.637 43.629 L 77.102 45.332 L 69.918 47.19 L 69.051 43.783 L 76.235 41.926 L 76.637 43.629 Z " fill="rgb(129,158,203)"/></g></g></svg>