<?xml version="1.0" standalone="no"?><!-- Generator: Gravit.io --><svg xmlns="http://www.w3.org/2000/svg" xmlns:xlink="http://www.w3.org/1999/xlink" style="isolation:isolate" viewBox="0 0 200 200" width="200" height="200"><defs><clipPath id="_clipPath_gj23BUKbN1QMpBKU5ZEP3hCqfDksQdSl"><rect width="200" height="200"/></clipPath></defs><g clip-path="url(#_clipPath_gj23BUKbN1QMpBKU5ZEP3hCqfDksQdSl)"><rect width="200" height="200" style="fill:rgb(117,205,232)"/><g><path d=" M 109.839 116.047 C 108.477 114.685 106.247 114.685 104.885 116.047 L 103.925 117.007 L 108.848 121.931 L 109.808 120.971 C 111.164 119.615 111.178 117.42 109.839 116.047 L 109.839 116.047 Z  M 81.197 120.599 L 65.776 105.179 L 63.98 109.08 L 78.41 123.51 C 78.596 123.262 78.781 123.077 78.998 122.86 L 81.197 120.599 L 81.197 120.599 Z  M 88.535 132.397 C 88.319 132.614 88.071 132.799 87.885 132.985 L 90.92 136.02 L 93.118 134.998 L 94.821 134.224 L 90.796 130.198 L 88.535 132.397 L 88.535 132.397 Z  M 83.674 118.122 L 86.523 115.273 L 69.151 97.902 L 67.355 101.804 L 83.674 118.122 Z  M 93.242 127.69 L 98.165 132.614 L 99.868 131.84 C 100.116 131.096 100.519 130.446 101.045 129.796 L 96.091 124.841 L 93.242 127.69 Z  M 74.973 141.439 L 76.304 142.77 L 80.206 140.974 L 58.995 119.763 L 57.199 123.665 L 74.973 141.439 L 74.973 141.439 Z  M 77.016 127.133 L 62.37 112.487 L 61.596 114.19 L 60.574 116.388 L 83.612 139.426 L 87.513 137.63 L 84.293 134.41 C 82.404 134.564 80.453 133.914 78.998 132.459 C 77.543 130.942 76.893 128.991 77.016 127.133 Z  M 94.821 105.241 C 91.136 101.556 88.257 97.252 86.244 92.514 L 76.304 82.575 L 74.106 87.25 L 77.574 90.718 L 75.097 93.195 L 72.526 90.625 L 72.279 91.121 L 70.7 94.496 L 88.969 112.765 L 91.818 109.916 L 85.253 103.352 L 87.73 100.875 L 94.295 107.439 L 95.657 106.077 L 94.821 105.241 L 94.821 105.241 Z  M 83.705 99.265 L 82.466 100.503 L 78.565 96.602 L 81.042 94.124 L 84.943 98.026 L 83.705 99.265 Z  M 101.417 119.516 L 106.34 124.439 L 103.491 127.288 L 98.568 122.364 L 101.417 119.516 Z  M 51.068 154.506 L 45.463 148.901 L 43.636 152.772 L 47.197 156.333 L 51.068 154.506 Z  M 40.571 159.367 L 43.791 157.881 L 42.088 156.178 L 40.571 159.367 Z  M 58.345 151.131 L 48.838 141.624 L 47.012 145.495 L 54.443 152.927 L 58.345 151.131 Z  M 53.824 130.942 L 69.027 146.145 L 72.929 144.349 L 55.62 127.04 L 53.824 130.942 Z  M 51.749 139.519 L 61.751 149.52 L 65.652 147.724 L 52.245 134.317 L 50.418 138.187 L 51.749 139.519 Z  M 110.118 125.678 L 103.956 131.84 C 103.832 131.963 103.739 132.118 103.615 132.242 C 103.213 132.83 103.027 133.512 103.089 134.193 C 103.151 134.874 103.429 135.586 103.956 136.113 C 105.132 137.289 107.052 137.289 108.229 136.113 L 119.283 125.058 L 119.067 124.841 L 118.138 123.727 C 118.045 123.634 118.014 123.541 117.921 123.448 C 116.311 121.219 115.196 118.68 114.731 115.986 C 114.484 115.924 114.174 115.862 113.926 115.8 C 115.017 118.421 114.418 121.442 112.409 123.448 L 111.449 124.408 L 110.118 125.678 L 110.118 125.678 Z  M 95.595 111.155 L 81.475 125.275 C 80.759 126.027 80.428 127.065 80.577 128.093 C 80.8 129.461 81.872 130.533 83.24 130.756 C 83.983 130.88 84.727 130.756 85.346 130.384 C 85.594 130.26 85.841 130.075 86.058 129.858 L 102.377 113.539 C 102.934 112.982 103.584 112.518 104.265 112.208 C 102.191 111.124 100.209 109.824 98.382 108.368 L 95.595 111.155 L 95.595 111.155 Z " fill="rgb(129,158,203)"/><path d=" M 142.073 123.015 C 146.037 119.051 147.306 113.075 145.263 107.811 L 144.984 107.099 L 145.294 106.417 L 145.48 106.046 L 145.758 105.458 L 146.068 105.21 C 147.028 104.436 147.926 103.6 148.793 102.733 C 162.975 88.551 162.975 65.451 148.793 51.269 C 134.611 37.087 111.511 37.087 97.329 51.269 C 96.555 52.043 95.781 52.879 95.038 53.808 L 94.79 54.118 L 94.202 54.397 C 93.985 54.49 93.768 54.582 93.583 54.706 L 92.901 55.016 L 92.189 54.737 C 86.938 52.686 80.97 53.938 76.985 57.927 C 71.653 63.294 71.462 71.899 76.552 77.496 L 77.016 77.961 C 77.295 78.24 77.543 78.487 77.821 78.704 C 77.883 78.766 77.976 78.859 78.069 78.89 C 78.441 79.199 78.843 79.478 79.246 79.757 C 79.339 79.788 79.432 79.881 79.525 79.912 C 81.382 81.088 83.519 81.8 85.717 82.017 L 87.08 82.141 L 87.328 83.442 C 87.761 85.857 88.442 88.21 89.34 90.471 C 90.022 92.143 90.796 93.784 91.725 95.332 C 93.273 97.995 95.193 100.472 97.422 102.702 C 97.732 103.011 98.072 103.352 98.413 103.631 C 98.97 104.126 99.528 104.621 100.116 105.086 C 104.885 108.988 110.551 111.62 116.651 112.765 L 117.952 113.013 L 118.076 114.313 C 118.323 116.853 119.19 119.206 120.646 121.219 L 121.172 121.931 C 121.358 122.179 121.544 122.364 121.76 122.581 C 121.884 122.705 121.977 122.86 122.132 123.015 L 122.442 123.324 C 122.628 123.51 122.813 123.696 123.03 123.851 L 123.928 124.563 C 124.114 124.687 124.238 124.811 124.423 124.934 C 130.03 128.509 137.367 127.711 142.073 123.015 L 142.073 123.015 Z  M 145.232 59.784 L 146.254 63.16 L 139.132 65.265 L 138.636 63.593 L 138.141 61.921 L 145.232 59.784 Z  M 114.484 52.384 L 114.174 48.854 L 121.575 48.142 L 121.73 49.907 L 121.884 51.672 L 114.484 52.384 L 114.484 52.384 Z  M 119.19 66.814 L 117.425 66.844 L 117.24 59.413 L 120.77 59.351 L 120.955 66.783 L 119.19 66.814 Z  M 132.381 56.347 L 130.616 56.131 L 131.483 48.761 L 134.982 49.164 L 134.115 56.533 L 132.381 56.347 Z  M 129.904 69.972 L 130.771 68.424 L 131.638 66.875 L 138.141 70.529 L 137.274 72.078 L 136.407 73.626 L 129.904 69.972 Z  M 133.31 84.897 L 134.146 81.46 L 141.361 83.225 L 140.959 84.928 L 140.556 86.631 L 133.31 84.897 L 133.31 84.897 Z  M 151.053 81.955 L 149.35 82.42 L 147.492 75.236 L 150.898 74.369 L 152.756 81.553 L 151.053 81.955 Z " fill="rgb(252,191,179)"/></g></g></svg>