<?xml version="1.0" standalone="no"?><!-- Generator: Gravit.io --><svg xmlns="http://www.w3.org/2000/svg" xmlns:xlink="http://www.w3.org/1999/xlink" style="isolation:isolate" viewBox="14 9 50 50" width="50" height="50"><path d=" M 39 9 C 25.203 9 14 20.203 14 34 C 14 47.797 25.203 59 39 59 C 52.797 59 64 47.797 64 34 C 64 20.203 52.797 9 39 9 Z  M 39 11 C 51.715 11 62 21.285 62 34 C 62 46.715 51.715 57 39 57 C 26.285 57 16 46.715 16 34 C 16 21.285 26.285 11 39 11 Z  M 38.906 13.969 C 38.863 13.977 38.82 13.989 38.781 14 C 38.316 14.105 37.989 14.523 38 15 L 38 31.188 C 36.84 31.602 36 32.699 36 34 C 36 34.453 36.133 34.863 36.313 35.25 L 30.281 41.281 C 30.09 41.471 29.982 41.73 29.982 42 C 29.982 42.27 30.09 42.529 30.281 42.719 C 30.68 43.117 31.321 43.117 31.719 42.719 L 37.75 36.687 C 38.137 36.867 38.547 37 39 37 C 40.657 37 42 35.657 42 34 C 42 32.7 41.16 31.602 40 31.187 L 40 15 C 40.01 14.712 39.896 14.434 39.686 14.237 C 39.477 14.039 39.193 13.942 38.906 13.969 Z " fill="rgb(0,0,0)"/></svg>