<?xml version="1.0" standalone="no"?><!-- Generator: Gravit.io --><svg xmlns="http://www.w3.org/2000/svg" xmlns:xlink="http://www.w3.org/1999/xlink" style="isolation:isolate" viewBox="748.778 502.526 377.192 469.474" width="377.192" height="469.474"><g id="Group"><path d=" M 1044.518 522.314 C 1032.492 522.314 1022.652 531.219 1022.652 542.102 L 1022.652 549.77 L 1066.111 549.77 L 1066.111 542.102 C 1066.112 531.27 1056.488 522.45 1044.518 522.314 L 1044.518 522.314 Z  M 938.194 654.895 L 802.077 654.895 L 811.37 677.651 L 938.74 677.651 C 938.467 675.92 938.467 674.436 938.467 672.704 L 938.194 654.895 L 938.194 654.895 Z  M 1022.652 672.704 C 1022.652 674.436 1022.379 676.167 1022.379 677.651 L 1049.165 677.651 L 1054.358 664.789 L 1058.458 654.895 L 1022.925 654.895 L 1022.652 672.704 L 1022.652 672.704 Z  M 938.194 635.107 L 938.194 612.35 L 784.857 612.35 L 794.15 635.107 L 938.194 635.107 Z  M 1022.652 635.107 L 1066.111 635.107 L 1070.211 625.213 C 1068.024 621.255 1066.931 617.05 1066.384 612.35 L 1022.652 612.35 L 1022.652 635.107 Z  M 1002.699 762.988 L 1014.452 762.988 L 1023.745 740.231 L 836.516 740.231 L 845.809 762.988 L 1002.699 762.988 L 1002.699 762.988 Z  M 948.58 697.687 L 819.296 697.687 L 823.396 707.581 L 828.589 720.443 L 1031.945 720.443 L 1041.238 697.687 L 1012.812 697.687 C 1005.159 705.849 993.679 711.044 980.833 711.044 C 967.713 710.796 956.233 705.602 948.58 697.687 Z  M 930.541 539.134 C 898.015 539.134 866.309 533.445 836.516 522.562 L 748.778 522.562 L 759.711 550.018 L 790.324 550.018 L 790.324 569.806 L 767.637 569.806 L 768.731 572.774 L 776.657 592.562 L 937.92 592.562 L 937.92 569.806 L 879.975 569.806 L 879.975 550.018 L 937.92 550.018 L 937.92 539.134 L 930.541 539.134 L 930.541 539.134 Z  M 855.102 559.664 L 855.102 569.559 L 820.663 569.559 L 820.663 549.77 L 855.102 549.77 L 855.102 559.664 Z  M 1022.652 569.806 L 1066.111 569.806 L 1066.111 592.562 L 1022.652 592.562 L 1022.652 569.806 Z  M 954.867 910.657 L 905.395 910.657 L 914.414 933.413 L 945.847 933.413 L 954.867 910.657 Z  M 929.994 972 L 937.647 953.201 L 922.614 953.201 L 929.994 972 Z  M 972.086 868.112 L 888.175 868.112 L 897.195 890.869 L 962.793 890.869 L 972.086 868.112 Z  M 863.029 805.532 L 997.233 805.532 L 1006.526 782.776 L 853.736 782.776 L 863.029 805.532 Z  M 891.728 848.077 L 980.013 848.077 L 989.306 825.32 L 870.955 825.32 L 879.975 848.077 L 891.728 848.077 Z  M 1088.251 559.664 L 1088.251 608.887 C 1088.251 609.877 1088.524 610.866 1088.524 611.856 C 1089.344 615.813 1091.531 619.276 1094.811 621.75 C 1098.09 624.223 1102.464 625.955 1107.11 625.955 C 1117.497 625.955 1125.97 618.287 1125.97 608.887 L 1125.97 520.583 L 1124.057 520.583 L 1115.037 519.841 C 1114.217 519.841 1113.67 519.593 1112.85 519.593 C 1095.904 517.12 1079.778 511.431 1065.838 502.526 C 1064.471 503.268 1062.831 504.258 1061.465 505 C 1077.847 511.114 1088.533 525.571 1088.524 541.608 L 1088.524 549.276 L 1088.251 559.664 L 1088.251 559.664 Z  M 960.06 559.664 L 960.06 672.457 C 960.217 678.319 963.341 683.791 968.533 687.298 C 975.554 691.872 985.019 691.872 992.039 687.298 C 995.866 684.825 998.599 681.362 999.693 677.404 C 1000.239 675.92 1000.512 674.188 1000.512 672.457 L 1000.512 542.102 C 1000.512 537.65 1001.333 533.198 1002.972 529.24 C 989.033 533.198 974.546 535.919 960.06 537.403 L 960.06 559.664 L 960.06 559.664 Z " fill="rgb(210,157,107)"/></g></svg>