<?xml version="1.0" standalone="no"?><!-- Generator: Gravit.io --><svg xmlns="http://www.w3.org/2000/svg" xmlns:xlink="http://www.w3.org/1999/xlink" style="isolation:isolate" viewBox="643 108 574.535 410.604" width="574.535" height="410.604"><g id="Group"><path d=" M 1217.535 421.395 C 1217.535 389.734 1196.762 360.794 1164.509 347.931 L 1160.136 346.2 L 1158.496 342.242 L 1157.676 340.016 L 1156.309 336.553 L 1156.583 334.327 C 1157.403 327.401 1157.676 320.475 1157.676 313.549 C 1157.676 200.262 1055.725 108 930.541 108 C 805.357 108 703.405 200.262 703.405 313.549 C 703.405 319.733 703.679 326.164 704.499 332.843 L 704.772 335.069 L 703.405 338.532 C 702.859 339.769 702.312 341.005 702.039 342.242 L 700.399 346.2 L 696.026 347.931 C 663.796 360.715 642.983 389.55 643 421.395 C 643.151 464.131 680.287 499.261 727.458 501.289 L 731.558 501.289 C 734.018 501.289 736.205 501.289 738.391 501.042 C 738.938 501.042 739.758 501.042 740.305 500.795 C 743.311 500.547 746.318 500.053 749.324 499.558 C 749.871 499.311 750.691 499.311 751.238 499.063 C 764.631 496.342 777.204 490.653 787.864 482.738 L 794.424 477.791 L 801.257 481.996 C 813.83 489.911 827.223 496.59 841.163 502.031 C 851.549 505.989 862.209 509.452 873.142 511.926 C 891.728 516.378 911.134 518.604 930.814 518.604 C 933.547 518.604 936.554 518.604 939.287 518.357 C 943.934 518.109 948.58 517.862 953.227 517.367 C 991.493 513.904 1028.119 501.784 1060.098 481.996 L 1066.931 477.791 L 1073.218 482.491 C 1085.517 491.643 1099.73 497.579 1115.037 499.805 L 1120.503 500.547 C 1122.417 500.795 1124.057 500.795 1125.97 500.795 C 1127.063 500.795 1128.157 501.042 1129.523 501.042 L 1132.256 501.042 C 1133.896 501.042 1135.536 501.042 1137.176 500.795 L 1144.283 500.053 C 1145.649 499.805 1146.743 499.805 1148.109 499.558 C 1188.631 491.444 1217.49 458.952 1217.535 421.395 L 1217.535 421.395 Z  M 952.407 156.234 L 971.813 165.633 L 949.674 202.488 L 940.107 197.789 L 930.541 193.089 L 952.407 156.234 Z  M 784.037 249.485 L 767.091 236.623 L 796.61 204.22 L 805.083 210.651 L 813.556 217.082 L 784.037 249.485 L 784.037 249.485 Z  M 868.495 288.319 L 860.842 295.493 L 827.223 266.553 L 842.529 252.206 L 876.148 281.146 L 868.495 288.319 Z  M 880.522 193.831 L 871.775 200.015 L 843.076 167.117 L 860.295 154.749 L 888.995 187.647 L 880.522 193.831 Z  M 929.721 258.143 L 926.714 248.496 L 923.707 238.849 L 968.533 227.471 L 971.54 237.118 L 974.546 246.764 L 929.721 258.143 Z  M 1010.626 304.15 L 999.146 287.083 L 1038.778 265.316 L 1044.518 273.726 L 1050.258 282.136 L 1010.626 304.15 L 1010.626 304.15 Z  M 1075.951 221.534 L 1070.484 230.192 L 1030.579 208.92 L 1041.785 191.852 L 1081.691 213.125 L 1075.951 221.534 Z " fill="rgb(238,187,186)"/></g></svg>