<?xml version="1.0" standalone="no"?><!-- Generator: Gravit.io --><svg xmlns="http://www.w3.org/2000/svg" xmlns:xlink="http://www.w3.org/1999/xlink" style="isolation:isolate" viewBox="69 9 47 47" width="47" height="47"><path d=" M 78.4 9 C 73.219 9 69 13.219 69 18.4 L 69 46.6 C 69 51.781 73.219 56 78.4 56 L 106.6 56 C 111.781 56 116 51.781 116 46.6 L 116 18.4 C 116 13.219 111.781 9 106.6 9 L 78.4 9 Z  M 78.4 10.88 L 106.6 10.88 C 110.768 10.88 114.12 14.232 114.12 18.4 L 114.12 46.6 C 114.12 50.768 110.768 54.12 106.6 54.12 L 100.96 54.12 L 100.96 36.26 L 105.513 36.26 L 105.66 35.467 L 106.6 29.827 L 106.777 28.74 L 100.96 28.74 L 100.96 26.86 C 100.96 26.335 101.019 26.298 101.195 26.184 C 101.372 26.071 101.904 25.92 102.84 25.92 L 106.6 25.92 L 106.6 19.604 L 105.953 19.398 C 105.953 19.398 102.965 18.4 100.02 18.4 C 97.281 18.4 95.254 19.315 94.057 20.897 C 92.86 22.48 92.5 24.553 92.5 26.86 L 92.5 28.74 L 89.68 28.74 L 89.68 36.26 L 92.5 36.26 L 92.5 54.12 L 78.4 54.12 C 76.404 54.125 74.488 53.334 73.077 51.923 C 71.666 50.512 70.875 48.596 70.88 46.6 L 70.88 18.4 C 70.88 14.232 74.232 10.88 78.4 10.88 Z  M 100.02 20.28 C 102.062 20.28 103.945 20.765 104.72 20.985 L 104.72 24.04 L 102.84 24.04 C 101.757 24.04 100.898 24.125 100.167 24.598 C 99.437 25.072 99.08 25.978 99.08 26.86 L 99.08 30.62 L 104.544 30.62 L 103.898 34.38 L 99.08 34.38 L 99.08 54.12 L 94.38 54.12 L 94.38 34.38 L 91.56 34.38 L 91.56 30.62 L 94.38 30.62 L 94.38 26.86 C 94.38 24.767 94.736 23.092 95.555 22.013 C 96.374 20.933 97.666 20.28 100.02 20.28 Z " fill="rgb(0,0,0)"/></svg>