<?xml version="1.0" standalone="no"?><!-- Generator: Gravit.io --><svg xmlns="http://www.w3.org/2000/svg" xmlns:xlink="http://www.w3.org/1999/xlink" style="isolation:isolate" viewBox="0 0 1500 350" width="1500" height="350"><path d=" M 1293 42.2 C 1289.8 39.2 1282.2 36.6 1272 36.6 C 1259 36.6 1248.4 40.2 1239.6 46.2 L 1233.2 45.2 L 1220 42.8 C 1204 39.8 1187.6 36.8 1173.6 37.2 C 1155.8 37.2 1141.6 41.2 1135.8 53 C 1135.6 53.4 1135.6 53.8 1135.6 54 C 1135.6 54.8 1136.4 55.4 1137.2 55.4 C 1137.8 55.4 1138.2 55.2 1138.8 54.6 C 1144 44.8 1157.2 40.6 1173 40.6 C 1182.6 40.6 1193 41.6 1203.4 43.2 C 1202.8 52.6 1201.2 78 1199.2 105.8 C 1196 152.2 1192 208.8 1192 212.6 C 1192 214 1192.4 214.4 1193 214.4 C 1199.8 214.4 1201 195.8 1202.8 170.8 C 1205.8 130.6 1209.8 73.8 1241 50 C 1254.8 52.4 1267.2 54.6 1276.4 54.6 C 1290.4 54.6 1295.4 50.8 1295.4 46.8 C 1295.4 45.2 1294.4 43.6 1293 42.2 Z  M 1207.4 43.8 C 1216.8 45.4 1227 47.2 1236.2 49 C 1208 74.2 1202.4 127.4 1199.6 166.4 L 1199 175.6 L 1197.8 191.2 L 1196.6 191.2 L 1198.4 166.4 C 1198.6 162.2 1198.8 157.8 1199.2 153.4 L 1206.6 44.4 L 1207.4 43.8 Z  M 1291.2 48.2 C 1289 50.2 1284.2 51.2 1276.4 51.2 C 1267.8 51.2 1256.8 49.6 1244.4 47.4 C 1252.6 42.6 1261.6 40 1272 40 C 1283.2 40 1292 43.8 1292 46.8 C 1292 47.2 1292 47.8 1291.2 48.2 Z  M 1322.8 139.2 C 1318.6 149 1304 176 1292.4 176 C 1279.6 176 1278 152.6 1278 138 C 1278 134.8 1278 131.4 1278.2 129.4 C 1278 128.8 1277.2 128.2 1276.2 128.2 C 1275.8 128.2 1275.2 128.6 1275 128.8 C 1271.6 138.2 1259.8 169.6 1251.4 169.6 C 1248.8 169.6 1248.6 162.6 1248.6 160.8 C 1248.8 145.8 1258.6 123.6 1275.8 123.6 C 1279.4 123.6 1280.6 125.8 1281.4 127.8 C 1281.8 129 1282.4 129.8 1283.4 129.8 C 1284.4 129.8 1285 129.2 1285.2 128.6 C 1284.6 123.2 1280.8 120.4 1275.6 120.4 C 1255.8 120.4 1245.2 144.4 1245.2 161.6 C 1245.2 166 1246.2 173 1251.4 173 C 1259.2 173 1268 155.2 1273.4 141.8 L 1274.6 142 C 1275 154 1276.8 179.4 1292.6 179.4 C 1306 179.4 1320.8 151.8 1325.8 140.6 L 1322.8 139.2 Z  M 1374.2 129.2 C 1366.6 142.4 1344.8 172.8 1330.8 172.8 C 1324.6 172.8 1323 162.6 1323 156.6 C 1323 139.2 1333.8 117.6 1353.8 117.6 C 1360.8 117.6 1368.8 121.2 1370.6 128.6 C 1371.4 128.6 1372.8 128.4 1373.8 128.2 C 1371 118.8 1362 114.2 1353.8 114.2 C 1332 114.2 1319.8 136.6 1319.8 156 C 1319.8 164.2 1321.6 176.2 1330.8 176.2 C 1348.6 176.2 1373.6 139 1380.6 123.8 L 1381.6 124 L 1382.2 135.4 C 1383.4 158 1384.6 181 1385 203.8 C 1353.8 237.4 1321.4 274.4 1321.4 312.8 C 1321.4 327.4 1328.2 342.4 1344.4 342.4 C 1382.6 342.4 1388.4 269.4 1388.4 205.2 C 1390.4 203 1392.8 200.2 1395.2 197.8 C 1411 181.2 1431 159.8 1439.2 140.6 L 1436.2 139.2 C 1428.4 157.2 1409 178 1394 194 L 1388.2 200.2 C 1388 186.4 1387.2 171 1386.4 157.2 C 1385.6 142.4 1384.8 127.6 1384.6 113 C 1384.6 112 1383.8 111.6 1383 111.6 C 1381.8 111.6 1380 115.8 1378.2 120.4 L 1374.6 128 L 1374.8 128 L 1374.2 129.2 Z  M 1344.4 339 C 1329.8 339 1324.8 325 1324.8 312.6 C 1324.8 277.2 1355 241.4 1385 208.8 C 1385 271.2 1379 338.6 1344.4 339 Z  M 1374.2 129.2 L 1374.6 128 C 1374.4 128 1374.2 128.2 1373.8 128.2 C 1374 128.6 1374 129 1374.2 129.2 Z  M 1451.4 100 L 1443.2 181.6 C 1443.8 182.4 1444.4 183 1445 183 C 1445.4 183 1446 182.6 1446.6 182 C 1448.8 162.2 1450.8 140 1452.8 120 L 1458.4 65 C 1457.8 64.4 1457 63.8 1456.6 63.8 C 1456.2 63.8 1455.6 64 1455 64.6 L 1451.4 100 Z  M 1442.8 190.4 C 1442.8 190.8 1442.6 191.2 1442.6 191.6 C 1442.4 192.2 1442.4 192.6 1442.4 193 C 1442.4 194.6 1443.2 195.4 1444.6 195.4 C 1446 195.4 1446.2 193.6 1446.2 192.2 C 1446.2 190.2 1445.6 189.6 1444.4 189.6 C 1443.6 189.6 1442.8 190 1442.8 190.4 Z  M 762.8 139.2 C 758 150.6 743.2 170.6 730.2 170.6 C 717.8 170.6 710 159.2 705.8 142.6 C 730.6 115.6 757.8 62 757.8 29.4 C 757.8 17.8 754.2 6.2 739.8 6.2 C 709.4 6.2 699 78 699 113 C 699 116.6 699.2 120.6 699.4 123.2 C 696.6 122.2 694 121.8 691.4 121.8 C 678 121.8 665 134.8 665 148.4 C 665 155.8 669.2 160.6 677.4 160.6 C 684.8 160.6 693.8 154.4 703 145.4 C 708 163.2 717 174 731 174 C 745.6 173.4 760.4 153 765.8 140.6 L 762.8 139.2 Z  M 740.2 9.4 C 751.6 9.6 754.6 19.6 754.6 29.2 C 754.6 60.4 728.2 112 704.8 138.8 C 703.4 132.4 702.8 123.4 702.8 113.2 C 702.8 72.4 712.8 9.4 740.2 9.4 Z  M 677.2 157.2 C 671 157.2 668.4 154.2 668.4 148.4 C 668.4 136.4 679.6 125.2 691.6 125.2 C 694.4 125.2 697.2 125.8 699.8 127.2 C 700.2 132.8 701 137.4 702 142 C 693.2 151.2 684.6 157 677.2 157.2 Z  M 830 139.4 C 822.8 156.6 796.4 174.2 777.8 174.2 C 767.2 174.2 761.4 168.6 761.2 157.8 C 770.6 153 786 141 786 129.6 C 786 126 783.6 123.4 779.6 123.4 C 766.4 123.4 757.8 147 757.8 157.4 C 757.8 170.2 764.8 177.6 778.6 177.6 C 798.6 177 825 159.2 833 140.6 L 830 139.4 Z  M 780 126.8 C 782 126.8 782.8 127.6 782.8 129.8 C 782.8 139 768.6 149.8 761.4 154 C 762.6 144.8 770.2 126.8 780 126.8 Z  M 883.2 139.2 C 877.4 154 864.6 183.6 847.4 183.6 C 834.8 183.6 832.4 166.8 832.4 152.4 C 832.4 146.8 832.8 141.2 833.2 136.8 C 832.8 136.2 832 135.6 831.4 135.6 C 829.2 135.6 829.2 144 829.2 150 L 829.2 151.8 C 829.2 168.4 832 186.8 847.4 186.8 C 866.6 186.8 879.4 156.4 886.2 140.6 L 883.2 139.2 Z  M 832.2 128.4 C 833.4 128.4 834 127 834 125.4 C 834 124.2 833.6 122.8 832.4 122.8 C 831 122.8 830.4 124.2 830.4 125.6 C 830.4 127 831 128.4 832.2 128.4 Z  M 948.4 140 C 944.4 149 927.6 178.8 921.6 178.8 C 918.2 178.8 917.4 170 916.6 159.6 C 915.4 144.8 913.8 126.8 904.8 126.8 C 897.4 126.8 891.8 140.6 888 153.2 L 886.8 153 L 887.4 139 C 887.4 138 886.6 137.2 885.6 137.2 C 885 137.2 884.2 138.2 884 138.8 C 884 141.2 883.6 144.8 883.6 147.2 C 883.2 155.6 883 164 883 172.4 C 883 173.6 883.6 174.2 884.4 174.2 C 885.6 174.2 887.6 167.2 889.6 159.6 C 893 146.6 897.6 130.2 904.8 130.2 C 910.6 130.2 911.6 141.8 912.6 154.4 C 913.8 168 915.2 182.2 922 182.2 C 930.6 181.8 947.8 150 951.4 141.4 L 948.4 140 Z  M 1016.4 139.4 C 1009.2 156.6 982.8 174.2 964.2 174.2 C 953.6 174.2 947.8 168.6 947.6 157.8 C 957 153 972.4 141 972.4 129.6 C 972.4 126 970 123.4 966 123.4 C 952.8 123.4 944.2 147 944.2 157.4 C 944.2 170.2 951.2 177.6 965 177.6 C 985 177 1011.4 159.2 1019.4 140.6 L 1016.4 139.4 Z  M 966.4 126.8 C 968.4 126.8 969.2 127.6 969.2 129.8 C 969.2 139 955 149.8 947.8 154 C 949 144.8 956.6 126.8 966.4 126.8 Z  M 1081 140 C 1077 149 1060.2 178.8 1054.2 178.8 C 1050.8 178.8 1050 170 1049.2 159.6 C 1048 144.8 1046.4 126.8 1037.4 126.8 C 1030 126.8 1024.4 140.6 1020.6 153.2 L 1019.4 153 L 1020 139 C 1020 138 1019.2 137.2 1018.2 137.2 C 1017.6 137.2 1016.8 138.2 1016.6 138.8 C 1016.6 141.2 1016.2 144.8 1016.2 147.2 C 1015.8 155.6 1015.6 164 1015.6 172.4 C 1015.6 173.6 1016.2 174.2 1017 174.2 C 1018.2 174.2 1020.2 167.2 1022.2 159.6 C 1025.6 146.6 1030.2 130.2 1037.4 130.2 C 1043.2 130.2 1044.2 141.8 1045.2 154.4 C 1046.4 168 1047.8 182.2 1054.6 182.2 C 1063.2 181.8 1080.4 150 1084 141.4 L 1081 140 Z  M 169.2 138.2 C 168.8 138.2 168.4 138.6 168 138.8 C 163.8 149.2 155.6 159.4 144.4 159.4 C 133.2 159.4 124.4 150.6 119.4 141.4 C 125.8 121 132.2 100 132.2 78.2 C 132.2 69.6 130.6 60.4 123.8 60.4 C 113.6 60.4 107.4 83 107.4 103 C 107.4 117 110.2 131.4 115.8 142 C 104.8 176.8 88.6 210.2 76.6 210.2 C 61.6 210.2 58.2 170.6 54.8 129.2 C 51.2 84.6 47.2 38 29 38 C 15.4 38 1.6 65.6 -2.8 93.2 C -2.6 94 -2 94.6 -1 94.6 C -0.4 94.6 0.4 94.4 0.6 93.6 L 0.6 93.8 C 4 67.6 17.6 41.4 29 41.4 C 43.6 41.4 47.4 81.6 50.8 122.4 C 54.6 166.4 58.6 213.6 76.6 213.6 C 89.6 213.6 106.2 180.6 118 145.4 C 124.2 154.8 133.2 162.8 144.4 162.8 C 156.4 162.8 166.2 151.4 171.2 140.2 C 171.2 139 170.6 138.2 169.2 138.2 Z  M 116.6 135.8 C 112.8 126.6 110.8 115 110.8 103.2 C 110.8 87.6 115.4 63.8 123.6 63.8 C 127.6 63.8 128.6 70.8 128.6 77.6 C 128.6 99.2 123.4 116.8 117.8 135.8 L 116.6 135.8 Z  M 235.2 139.4 C 228 156.6 201.6 174.2 183 174.2 C 172.4 174.2 166.6 168.6 166.4 157.8 C 175.8 153 191.2 141 191.2 129.6 C 191.2 126 188.8 123.4 184.8 123.4 C 171.6 123.4 163 147 163 157.4 C 163 170.2 170 177.6 183.8 177.6 C 203.8 177 230.2 159.2 238.2 140.6 L 235.2 139.4 Z  M 185.2 126.8 C 187.2 126.8 188 127.6 188 129.8 C 188 139 173.8 149.8 166.6 154 C 167.8 144.8 175.4 126.8 185.2 126.8 Z  M 308.2 139 L 307 141.8 C 300.6 156.8 289.2 182.2 272.6 182.2 C 260.6 182.2 259.4 167.6 259.4 154 L 259.4 146.2 C 259.4 143.6 259.6 141 259.6 138.4 C 259.6 137.4 258.8 137.2 257.4 137.2 C 250.4 137.2 245 136.2 240.4 134.4 C 241.6 130.6 243 126 243 122.4 C 243 117.4 239.8 113 234.8 113 C 229.4 113 226.4 117.8 226.4 122.6 C 226.4 128.6 231 133.4 236.4 136.2 L 234.6 140 C 235.8 140.4 236.6 140.6 237.8 141.2 L 239.2 137.6 C 243.8 139.2 249.4 140.4 256.2 140.6 C 256.2 143.4 256 146.6 256 149.4 L 256 157.6 C 256 172.4 259.2 185.6 273 185.6 C 290.6 185.6 302.6 159.6 309.8 143.6 L 311.2 140.4 L 308.2 139 Z  M 236.8 132.8 C 233.2 130.8 229.8 127.2 229.8 122.6 C 229.8 119.6 231.2 116.4 234.8 116.4 C 238.2 116.4 239.8 119.2 239.8 122.4 C 239.8 125.4 238.8 129 237.8 132.4 L 236.8 132.8 Z  M 378.4 139.2 C 371.6 154.8 352.6 169 338 180 L 333.4 183.6 C 332 180.2 327.8 172.6 324 166.4 C 317.2 155 309.8 141.8 309.8 134 C 309.8 125 314.4 117.8 324.2 117.8 C 331.4 117.8 336.2 123 336.6 130 C 336.8 130.6 337.6 131.6 338.2 131.6 C 338.8 131.6 339.6 130.6 340 130 C 339.6 121.2 333.2 114.4 324.2 114.4 C 312.2 114.4 306.6 123.4 306.6 134.4 C 306.6 142.4 314 155 320.8 166.8 L 320.8 166.6 C 324.6 173.2 328.2 179.6 330.8 185.6 C 312.2 200 297.8 213.8 297.8 231.2 C 297.8 237.6 303 240.2 308.6 240.2 C 325.2 240.2 338.6 222 338.6 206 C 338.6 199.8 336.8 193.4 334.6 186.8 L 340.6 182.4 C 355.6 170.8 374.4 156.6 381.4 140.6 L 378.4 139.2 Z  M 308.4 237 C 303.8 237 301.2 235.2 301.2 230 C 301.2 215.2 315.4 202 332 189 C 334 194.6 335.2 200.4 335.2 206 C 335.2 220 323.4 237 308.4 237 Z  M 456.2 139.6 C 451.4 151.4 437.6 173.8 429 173.8 C 420.8 173.8 419 159.6 419 144.8 C 419 140 419.4 134.4 420 129.6 C 420.4 124.8 421 119.4 421 114.4 C 421 113.6 420 113.2 419.2 113.2 C 418.6 113.2 418 113.6 417.8 114 C 414.8 126 401 165.8 387.6 165.8 C 382.4 165.8 381.2 154 381.2 144 C 381.2 139.6 381.4 135.4 381.6 131 L 381.6 130 C 381.2 129.4 380.4 128.8 379.8 128.8 C 378 128.8 377.8 134.4 377.8 139.2 C 377.8 152.6 378.2 169 387.8 169 C 400.2 169 410.6 144.6 414.6 134.2 L 415.8 134.4 L 415.8 139.4 C 415.8 141.2 415.6 143 415.6 144.8 C 415.6 161 418.2 177.2 429 177.2 C 440 177.2 453.8 153.4 459.2 141 L 456.2 139.6 Z  M 393.2 113.8 C 393.2 114.2 393 114.8 393 115 C 392.8 115.6 392.8 116 392.8 116.4 C 392.8 118 393.6 118.6 394.8 118.6 C 396.6 118.6 396.4 117 396.4 115.6 C 396.4 114.4 396.2 113 394.6 113 C 393.8 113 393.2 113.4 393.2 113.8 Z  M 404.8 114.2 C 404.8 113.4 403.8 113 403 113 C 401 113 401.2 114.8 401.2 116.2 C 401.2 117.8 402 118.6 403.2 118.6 C 403.8 118.6 404.6 118.4 404.6 117.8 L 404.8 114.2 Z  M 492.2 108.8 C 508.4 99 520 78.2 520 59.4 C 520 49.6 516.4 39 505.2 39 C 485.8 39 473.6 80 466.2 122.8 L 465 122.6 C 465.4 113 465.8 103.6 465.8 95 C 465.8 72.2 463.8 55.4 457.4 55 C 456.8 55.4 456 56 456 56.4 C 456 57 456.6 57.8 457.2 58.4 C 460.8 59.8 462.4 74.8 462.4 95 C 462.4 117 460.4 141 458.6 163.4 C 457 182.8 455.4 201.2 455.4 215.6 C 455.4 216.2 456.2 216.6 457 216.6 C 459 216.6 459 214.2 459 212.2 L 459 211.4 C 461.6 179 472.2 42.4 505.2 42.4 C 514 42.4 516.6 51.8 516.6 59 C 516.6 81.6 500.6 106.4 478 111 L 478.8 114.2 C 482.8 113.4 486.4 113.4 490 113.4 C 517.4 113.4 527.4 133 527.4 155.2 C 527.4 182.8 511.6 213.6 494.4 213.6 C 484.8 213.6 481.4 206 481.4 197.2 C 481.4 192.6 482.4 187.6 484.4 182 C 484.2 181 483.4 180 482.6 180 C 479.4 180 478 193.8 478 197.2 C 478 207.8 483 217 494.4 217 C 514.2 217 530.8 184.6 530.8 155.4 C 530.8 132.4 520.4 111.2 492.6 110 L 492.2 108.8 Z  M 612 139.4 C 604.8 156.6 578.4 174.2 559.8 174.2 C 549.2 174.2 543.4 168.6 543.2 157.8 C 552.6 153 568 141 568 129.6 C 568 126 565.6 123.4 561.6 123.4 C 548.4 123.4 539.8 147 539.8 157.4 C 539.8 170.2 546.8 177.6 560.6 177.6 C 580.6 177 607 159.2 615 140.6 L 612 139.4 Z  M 562 126.8 C 564 126.8 564.8 127.6 564.8 129.8 C 564.8 139 550.6 149.8 543.4 154 C 544.6 144.8 552.2 126.8 562 126.8 Z " fill-rule="evenodd" fill="rgb(255,255,255)"/></svg>