<?xml version="1.0" standalone="no"?><!-- Generator: Gravit.io --><svg xmlns="http://www.w3.org/2000/svg" xmlns:xlink="http://www.w3.org/1999/xlink" style="isolation:isolate" viewBox="0 0 950 610" width="950" height="610"><path d=" M 468.217 16.316 C 341.451 16.316 238.547 119.093 238.547 245.986 C 238.547 372.879 341.324 475.655 468.217 475.655 C 595.11 475.655 697.887 372.879 697.887 245.986 C 697.887 119.093 595.11 16.316 468.217 16.316 L 468.217 16.316 Z " fill="none" vector-effect="non-scaling-stroke" stroke-width="1" stroke="rgb(255,255,255)" stroke-linejoin="miter" stroke-linecap="butt" stroke-miterlimit="4"/><path d=" M 547.024 584.867 L 547.024 584.867 Q 536.452 587.074 530.82 581.676 L 530.82 581.676 L 530.82 581.676 Q 525.188 576.278 522.871 565.177 L 522.871 565.177 L 517.61 539.981 L 517.61 539.981 Q 515.164 528.263 518.124 521.301 L 518.124 521.301 L 518.124 521.301 Q 521.084 514.34 531.832 512.096 L 531.832 512.096 L 531.832 512.096 Q 541.435 510.091 546.705 514.415 L 546.705 514.415 L 546.705 514.415 Q 551.975 518.739 554.09 528.871 L 554.09 528.871 L 555.267 534.509 L 545.84 536.477 L 544.792 531.456 L 544.792 531.456 Q 543.762 526.522 542.77 523.971 L 542.77 523.971 L 542.77 523.971 Q 541.777 521.42 539.64 520.211 L 539.64 520.211 L 539.64 520.211 Q 537.503 519.003 533.538 519.83 L 533.538 519.83 L 533.538 519.83 Q 529.486 520.676 527.862 522.808 L 527.862 522.808 L 527.862 522.808 Q 526.239 524.94 526.256 528.108 L 526.256 528.108 L 526.256 528.108 Q 526.274 531.276 527.341 536.386 L 527.341 536.386 L 533.245 564.666 L 533.245 564.666 Q 534.386 570.129 535.91 573.028 L 535.91 573.028 L 535.91 573.028 Q 537.435 575.928 539.693 576.835 L 539.693 576.835 L 539.693 576.835 Q 541.951 577.743 545.476 577.007 L 545.476 577.007 L 545.476 577.007 Q 549.264 576.217 550.764 574.156 L 550.764 574.156 L 550.764 574.156 Q 552.265 572.096 552.143 569.088 L 552.143 569.088 L 552.143 569.088 Q 552.02 566.079 550.972 561.058 L 550.972 561.058 L 549.868 555.771 L 559.295 553.803 L 560.399 559.089 L 560.399 559.089 Q 562.624 569.75 559.802 576.269 L 559.802 576.269 L 559.802 576.269 Q 556.98 582.788 547.024 584.867 L 547.024 584.867 L 547.024 584.867 Z  M 573.999 576.808 L 548.982 508.335 L 562.761 503.301 L 562.761 503.301 Q 573.159 499.502 579.579 501.995 L 579.579 501.995 L 579.579 501.995 Q 586 504.488 589.521 514.125 L 589.521 514.125 L 589.521 514.125 Q 594.339 527.313 586.905 533.191 L 586.905 533.191 L 609.166 563.96 L 599.951 567.327 L 579.254 538.477 L 571.815 541.195 L 583.552 573.318 L 573.999 576.808 L 573.999 576.808 Z  M 569.313 534.348 L 572.948 533.02 L 572.948 533.02 Q 579.119 530.765 580.887 527.341 L 580.887 527.341 L 580.887 527.341 Q 582.654 523.917 580.306 517.492 L 580.306 517.492 L 580.306 517.492 Q 578.762 513.265 576.952 511.196 L 576.952 511.196 L 576.952 511.196 Q 575.142 509.126 572.358 508.85 L 572.358 508.85 L 572.358 508.85 Q 569.574 508.573 565.263 510.148 L 565.263 510.148 L 561.036 511.693 L 569.313 534.348 L 569.313 534.348 Z  M 617.362 559.484 L 584.164 494.581 L 609.324 481.712 L 612.767 488.443 L 596.661 496.681 L 607.645 518.155 L 620.706 511.474 L 623.985 517.884 L 610.924 524.565 L 623.097 548.362 L 639.362 540.042 L 642.682 546.532 L 617.362 559.484 L 617.362 559.484 Z  M 646.369 544.377 L 618.463 475.273 L 626.598 469.79 L 680.252 521.541 L 672.266 526.923 L 659.244 513.559 L 646.93 521.858 L 654.28 539.045 L 646.369 544.377 L 646.369 544.377 Z  M 643.975 515.059 L 654.05 508.268 L 630.616 484.448 L 643.975 515.059 L 643.975 515.059 Z  M 685.925 517 L 637.907 462.132 L 645.302 455.415 L 694.587 490.529 L 664.421 438.047 L 671.749 431.39 L 721.766 484.444 L 715.703 489.95 L 679.521 451.323 L 705.977 498.785 L 701.713 502.658 L 657.071 471.717 L 692.054 511.433 L 685.925 517 L 685.925 517 Z  M 404.247 587.053 L 417.024 515.282 L 426.859 517.032 L 414.083 588.804 L 404.247 587.053 L 404.247 587.053 Z  M 443.893 592.919 L 443.893 592.919 Q 433.123 592.107 429.21 585.358 L 429.21 585.358 L 429.21 585.358 Q 425.296 578.61 426.15 567.302 L 426.15 567.302 L 428.086 541.635 L 428.086 541.635 Q 428.986 529.699 433.761 523.831 L 433.761 523.831 L 433.761 523.831 Q 438.536 517.964 449.485 518.79 L 449.485 518.79 L 449.485 518.79 Q 459.267 519.528 463.131 525.144 L 463.131 525.144 L 463.131 525.144 Q 466.994 530.761 466.215 541.082 L 466.215 541.082 L 465.782 546.825 L 456.179 546.101 L 456.565 540.985 L 456.565 540.985 Q 456.945 535.96 456.699 533.233 L 456.699 533.233 L 456.699 533.233 Q 456.453 530.507 454.735 528.753 L 454.735 528.753 L 454.735 528.753 Q 453.017 526.999 448.979 526.694 L 448.979 526.694 L 448.979 526.694 Q 444.851 526.383 442.699 527.98 L 442.699 527.98 L 442.699 527.98 Q 440.548 529.578 439.686 532.627 L 439.686 532.627 L 439.686 532.627 Q 438.825 535.676 438.432 540.881 L 438.432 540.881 L 436.259 569.689 L 436.259 569.689 Q 435.839 575.253 436.499 578.462 L 436.499 578.462 L 436.499 578.462 Q 437.16 581.671 439.077 583.169 L 439.077 583.169 L 439.077 583.169 Q 440.995 584.668 444.585 584.939 L 444.585 584.939 L 444.585 584.939 Q 448.444 585.23 450.457 583.667 L 450.457 583.667 L 450.457 583.667 Q 452.471 582.104 453.188 579.179 L 453.188 579.179 L 453.188 579.179 Q 453.905 576.255 454.291 571.14 L 454.291 571.14 L 454.697 565.755 L 464.299 566.479 L 463.893 571.864 L 463.893 571.864 Q 463.074 582.723 458.554 588.204 L 458.554 588.204 L 458.554 588.204 Q 454.034 593.684 443.893 592.919 L 443.893 592.919 L 443.893 592.919 Z  M 472.013 592.962 L 470.185 520.085 L 498.436 519.376 L 498.626 526.934 L 480.541 527.388 L 481.146 551.5 L 495.812 551.132 L 495.992 558.33 L 481.327 558.698 L 481.997 585.419 L 500.262 584.961 L 500.444 592.249 L 472.013 592.962 L 472.013 592.962 Z  M 240.237 507.749 L 286.595 451.488 L 308.336 469.402 L 303.7 475.028 L 289.808 463.581 L 274.356 482.335 L 285.122 491.206 L 280.543 496.763 L 269.777 487.891 L 248.086 514.216 L 240.237 507.749 L 240.237 507.749 Z  M 267.926 529.455 L 308.669 469.003 L 317.102 474.687 L 280.434 529.094 L 295.883 539.506 L 291.809 545.551 L 267.926 529.455 L 267.926 529.455 Z  M 314.405 558.005 L 314.405 558.005 Q 307.595 554.522 305.182 549.851 L 305.182 549.851 L 305.182 549.851 Q 302.769 545.18 303.827 539.554 L 303.827 539.554 L 303.827 539.554 Q 304.884 533.929 308.655 526.557 L 308.655 526.557 L 330.662 483.528 L 339.316 487.954 L 317.104 531.384 L 317.104 531.384 Q 313.333 538.755 313.089 543.483 L 313.089 543.483 L 313.089 543.483 Q 312.844 548.21 318.053 550.874 L 318.053 550.874 L 318.053 550.874 Q 323.261 553.538 326.951 550.573 L 326.951 550.573 L 326.951 550.573 Q 330.641 547.608 334.411 540.236 L 334.411 540.236 L 356.624 496.807 L 365.197 501.192 L 343.19 544.22 L 343.19 544.22 Q 339.419 551.592 335.477 555.742 L 335.477 555.742 L 335.477 555.742 Q 331.535 559.892 326.376 560.69 L 326.376 560.69 L 326.376 560.69 Q 321.216 561.489 314.405 558.005 L 314.405 558.005 L 314.405 558.005 Z  M 337.904 568.267 L 364.521 536.977 L 361.477 499.283 L 370.431 502.306 L 372.686 530.235 L 390.47 509.071 L 399.423 512.094 L 373.556 540.882 L 376.788 581.394 L 367.834 578.371 L 365.358 548.564 L 346.857 571.29 L 337.904 568.267 L 337.904 568.267 Z " fill-rule="evenodd" fill="rgb(255,255,255)"/><path d=" M 548.58 160.987 C 548.666 159.522 548.666 158.142 548.666 156.677 C 548.666 113.4 513.406 78.14 470.129 78.14 C 426.852 78.14 391.592 113.4 391.592 156.677 C 391.592 158.056 391.592 159.436 391.678 160.901 C 380.291 167.44 373.283 179.581 373.315 192.713 C 373.315 211.506 387.454 226.938 405.644 229.093 L 469.957 405.22 L 519.182 270.387 C 520.475 270.732 521.855 270.905 523.32 270.905 C 531.941 270.905 538.924 263.922 538.924 255.301 L 538.924 228.231 C 554.873 224.179 566.684 209.61 566.684 192.713 C 566.77 179.522 559.701 167.539 548.58 160.987 L 548.58 160.987 Z  M 529.096 255.301 C 529.094 257.523 527.799 259.54 525.779 260.466 C 523.759 261.393 521.385 261.059 519.7 259.611 C 518.732 258.751 518.067 257.602 517.803 256.335 C 517.717 255.99 517.717 255.732 517.717 255.387 L 517.717 233.059 C 517.717 227.541 514.355 222.886 509.527 220.903 C 509.958 220.644 510.389 220.386 510.82 220.041 C 515.044 223.058 519.872 224.955 524.958 225.731 C 525.217 225.731 525.389 225.817 525.648 225.817 L 528.407 226.076 L 529.01 226.076 L 529.01 255.301 L 529.096 255.301 Z  M 502.285 288.06 L 500.733 292.371 L 439.438 292.371 L 437.887 288.06 L 436.68 284.785 L 475.646 284.785 C 478.072 287.588 481.595 289.198 485.302 289.198 C 489.009 289.198 492.532 287.588 494.957 284.785 L 503.578 284.785 L 502.285 288.06 L 502.285 288.06 Z  M 485.905 333.062 L 485.216 334.959 L 454.956 334.959 L 454.266 333.062 L 452.197 327.372 L 487.888 327.372 L 485.905 333.062 L 485.905 333.062 Z  M 472.37 369.96 L 470.043 376.253 L 467.715 369.96 L 472.37 369.96 Z  M 474.784 363.322 L 465.387 363.322 L 462.629 355.735 L 477.629 355.735 L 474.784 363.322 Z  M 479.957 349.183 L 460.129 349.183 L 457.37 341.597 L 482.716 341.597 L 479.957 349.183 Z  M 472.543 231.852 L 472.543 235.473 L 455.128 235.473 L 455.128 242.024 L 472.543 242.024 L 472.543 249.611 L 423.834 249.611 L 423.145 247.628 L 421.076 242.024 L 427.886 242.024 L 427.886 235.473 L 418.662 235.473 L 415.3 226.334 L 441.766 226.334 C 450.732 229.955 460.301 231.852 470.129 231.852 L 472.543 231.852 L 472.543 231.852 Z  M 511.165 235.473 L 497.975 235.473 L 497.975 232.886 C 497.975 230.545 499.224 228.382 501.251 227.212 C 503.278 226.042 505.775 226.042 507.803 227.212 C 509.83 228.382 511.079 230.545 511.079 232.886 L 511.165 235.473 L 511.165 235.473 Z  M 511.165 249.697 L 497.975 249.697 L 497.975 242.111 L 511.079 242.111 L 511.165 249.697 L 511.165 249.697 Z  M 491.337 232.886 L 491.337 276.25 C 491.337 276.853 491.25 277.37 491.078 277.888 C 490.326 280.499 487.933 282.294 485.216 282.284 C 483.923 282.284 482.716 281.853 481.681 281.164 C 480.549 280.375 479.726 279.217 479.353 277.888 C 479.181 277.37 479.095 276.767 479.095 276.25 L 479.095 231.334 C 483.492 230.817 487.888 229.869 492.112 228.576 C 491.681 229.955 491.337 231.421 491.337 232.886 Z  M 426.248 256.335 L 472.543 256.335 L 472.543 263.922 L 429.007 263.922 L 426.248 256.335 L 426.248 256.335 Z  M 434.955 270.56 L 472.457 270.56 L 472.457 276.508 C 472.457 277.112 472.543 277.629 472.543 278.146 L 434.093 278.146 L 431.335 270.56 L 434.955 270.56 L 434.955 270.56 Z  M 490.388 320.734 L 449.783 320.734 L 447.025 313.148 L 493.147 313.148 L 490.388 320.734 Z  M 495.561 306.509 L 444.611 306.509 L 441.852 298.923 L 498.32 298.923 L 495.561 306.509 Z  M 497.975 263.922 L 497.975 256.335 L 511.165 256.335 C 511.251 257.887 511.682 259.266 512.286 260.56 L 511.079 263.836 L 497.975 263.836 L 497.975 263.922 Z  M 505.906 278.146 L 497.889 278.146 C 497.975 277.629 497.975 277.026 497.975 276.508 L 497.975 270.56 L 508.665 270.56 L 505.906 278.146 L 505.906 278.146 Z  M 535.735 218.748 C 535.39 218.834 534.959 218.92 534.614 218.92 C 533.924 219.006 533.148 219.179 532.459 219.179 C 531.941 219.179 531.51 219.265 530.993 219.265 L 529.183 219.265 C 528.665 219.265 528.062 219.179 527.545 219.179 C 527.027 219.093 526.424 219.093 525.907 219.006 C 521.27 218.24 516.924 216.246 513.32 213.23 L 511.423 211.592 L 509.354 213.058 C 499.699 219.696 488.664 223.748 477.112 224.869 C 475.733 225.041 474.353 225.127 472.974 225.127 C 472.112 225.127 471.25 225.214 470.388 225.214 C 461.086 225.207 451.88 223.331 443.318 219.696 C 439.093 217.886 435.042 215.644 431.248 212.972 L 429.179 211.506 L 427.283 213.144 C 424.093 215.817 420.3 217.627 416.248 218.575 C 416.075 218.662 415.817 218.662 415.644 218.748 C 414.782 218.92 413.834 219.093 412.886 219.179 C 412.713 219.179 412.455 219.265 412.282 219.265 C 411.593 219.351 410.903 219.351 410.213 219.351 L 409.006 219.351 C 407.886 219.265 406.851 219.179 405.73 219.006 C 392.912 216.811 383.528 205.718 383.488 192.713 C 383.488 182.109 389.781 172.539 399.437 168.229 L 400.73 167.625 L 401.247 166.246 C 401.42 165.815 401.592 165.384 401.678 164.953 L 402.109 163.918 L 402.023 163.143 C 401.851 160.901 401.678 158.746 401.678 156.677 C 401.678 118.831 432.455 88.14 470.215 88.14 C 508.061 88.14 538.752 118.917 538.752 156.677 C 538.752 158.918 538.666 161.246 538.407 163.574 L 538.321 164.349 L 538.752 165.556 C 538.838 165.815 538.924 166.074 539.011 166.246 L 539.528 167.625 L 540.821 168.229 C 550.541 172.483 556.808 182.102 556.77 192.713 C 556.856 205.472 547.718 216.162 535.735 218.748 L 535.735 218.748 Z  M 437.111 238.835 L 437.111 242.111 L 447.456 242.111 L 447.456 235.473 L 437.111 235.473 L 437.111 238.835 Z  M 476.853 104.175 L 482.716 107.365 L 475.991 119.693 L 470.129 116.503 L 476.853 104.175 Z  M 502.889 140.642 L 490.906 147.883 L 492.63 150.728 L 494.354 153.573 L 506.337 146.332 L 504.613 143.487 L 502.889 140.642 Z  M 446.421 105.813 L 443.835 107.882 L 452.456 118.917 L 457.715 114.779 L 449.008 103.744 L 446.421 105.813 Z  M 441.335 138.659 L 439.007 140.987 L 449.18 150.728 L 451.421 148.314 L 453.749 145.901 L 443.663 136.245 L 441.335 138.659 L 441.335 138.659 Z  M 501.94 118.917 L 500.302 121.762 L 512.372 128.917 L 514.01 126.072 L 515.734 123.227 L 503.665 116.072 L 501.94 118.917 Z  M 429.869 120.296 L 420.903 131.073 L 425.99 135.297 L 434.955 124.521 L 432.369 122.365 L 429.869 120.296 Z  M 469.87 138.314 L 468.06 131.935 L 481.595 128.141 L 483.405 134.521 L 469.87 138.314 Z " fill="rgb(255,255,255)"/><path d=" M 58.575 236.476 L 58.575 236.476 Q 55.775 236.476 54.075 235.376 L 54.075 235.376 L 54.075 235.376 Q 52.375 234.276 51.575 231.826 L 51.575 231.826 L 51.575 231.826 Q 50.775 229.376 50.775 225.176 L 50.775 225.176 L 50.775 217.876 L 50.775 217.876 Q 50.775 213.626 51.6 211.201 L 51.6 211.201 L 51.6 211.201 Q 52.425 208.776 54.15 207.726 L 54.15 207.726 L 54.15 207.726 Q 55.875 206.676 58.625 206.676 L 58.625 206.676 L 58.625 206.676 Q 61.625 206.676 63.25 207.951 L 63.25 207.951 L 63.25 207.951 Q 64.875 209.226 65.5 211.776 L 65.5 211.776 L 65.5 211.776 Q 66.125 214.326 66.125 218.626 L 66.125 218.626 L 66.125 221.226 L 54.425 221.226 L 54.425 226.276 L 54.425 226.276 Q 54.425 230.426 55.375 232.076 L 55.375 232.076 L 55.375 232.076 Q 56.325 233.726 58.575 233.726 L 58.575 233.726 L 58.575 233.726 Q 60.475 233.726 61.5 232.526 L 61.5 232.526 L 61.5 232.526 Q 62.525 231.326 62.525 228.176 L 62.525 228.176 L 62.525 226.176 L 66.075 226.176 L 66.075 227.776 L 66.075 227.776 Q 66.075 231.976 64.325 234.226 L 64.325 234.226 L 64.325 234.226 Q 62.575 236.476 58.575 236.476 L 58.575 236.476 L 58.575 236.476 Z  M 54.425 219.126 L 62.525 219.126 L 62.525 216.726 L 62.525 216.726 Q 62.525 214.126 62.25 212.626 L 62.25 212.626 L 62.25 212.626 Q 61.975 211.126 61.125 210.276 L 61.125 210.276 L 61.125 210.276 Q 60.275 209.426 58.575 209.426 L 58.575 209.426 L 58.575 209.426 Q 57.025 209.426 56.125 210.101 L 56.125 210.101 L 56.125 210.101 Q 55.225 210.776 54.825 212.451 L 54.825 212.451 L 54.825 212.451 Q 54.425 214.126 54.425 217.176 L 54.425 217.176 L 54.425 219.126 L 54.425 219.126 Z  M 77.675 236.476 L 77.675 236.476 Q 74.275 236.476 72.2 234.276 L 72.2 234.276 L 72.2 234.276 Q 70.125 232.076 69.825 228.276 L 69.825 228.276 L 72.875 227.326 L 72.875 227.326 Q 73.175 230.626 74.425 232.176 L 74.425 232.176 L 74.425 232.176 Q 75.675 233.726 77.925 233.726 L 77.925 233.726 L 77.925 233.726 Q 79.825 233.726 80.85 232.651 L 80.85 232.651 L 80.85 232.651 Q 81.875 231.576 81.875 229.626 L 81.875 229.626 L 81.875 229.626 Q 81.875 226.776 78.375 223.826 L 78.375 223.826 L 74.425 220.426 L 74.425 220.426 Q 72.375 218.726 71.425 217.076 L 71.425 217.076 L 71.425 217.076 Q 70.475 215.426 70.475 213.176 L 70.475 213.176 L 70.475 213.176 Q 70.475 210.126 72.35 208.401 L 72.35 208.401 L 72.35 208.401 Q 74.225 206.676 77.375 206.676 L 77.375 206.676 L 77.375 206.676 Q 80.575 206.676 82.3 208.726 L 82.3 208.726 L 82.3 208.726 Q 84.025 210.776 84.225 214.276 L 84.225 214.276 L 81.625 215.126 L 81.625 215.126 Q 81.325 209.426 77.525 209.426 L 77.525 209.426 L 77.525 209.426 Q 75.825 209.426 74.825 210.351 L 74.825 210.351 L 74.825 210.351 Q 73.825 211.276 73.825 212.926 L 73.825 212.926 L 73.825 212.926 Q 73.825 214.276 74.325 215.276 L 74.325 215.276 L 74.325 215.276 Q 74.825 216.276 76.175 217.476 L 76.175 217.476 L 80.275 221.126 L 80.275 221.126 Q 82.625 223.226 83.85 225.051 L 83.85 225.051 L 83.85 225.051 Q 85.075 226.876 85.075 229.526 L 85.075 229.526 L 85.075 229.526 Q 85.075 232.826 83.075 234.651 L 83.075 234.651 L 83.075 234.651 Q 81.075 236.476 77.675 236.476 L 77.675 236.476 L 77.675 236.476 Z  M 96.075 236.376 L 96.075 236.376 Q 93.125 236.376 92 234.751 L 92 234.751 L 92 234.751 Q 90.875 233.126 90.875 230.026 L 90.875 230.026 L 90.875 209.526 L 87.325 209.526 L 87.325 207.126 L 90.875 207.126 L 90.875 198.176 L 94.525 198.176 L 94.525 207.126 L 99.325 207.126 L 99.325 209.526 L 94.525 209.526 L 94.525 229.676 L 94.525 229.676 Q 94.525 231.876 95.025 232.701 L 95.025 232.701 L 95.025 232.701 Q 95.525 233.526 97.075 233.526 L 97.075 233.526 L 97.075 233.526 Q 98.025 233.526 99.175 233.276 L 99.175 233.276 L 99.175 236.076 L 99.175 236.076 Q 97.625 236.376 96.075 236.376 L 96.075 236.376 L 96.075 236.376 Z  M 103.425 236.026 L 103.425 230.526 L 107.275 230.526 L 107.275 236.026 L 103.425 236.026 L 103.425 236.026 Z " fill-rule="evenodd" fill="rgb(255,255,255)"/><path d=" M 834.3 236.026 L 834.3 233.326 L 845.2 216.626 L 845.2 216.626 Q 845.4 216.326 845.575 216.076 L 845.575 216.076 L 845.575 216.076 Q 845.75 215.826 845.85 215.676 L 845.85 215.676 L 845.85 215.676 Q 847.9 212.476 848.875 210.276 L 848.875 210.276 L 848.875 210.276 Q 849.85 208.076 849.85 205.126 L 849.85 205.126 L 849.85 205.126 Q 849.85 201.826 848.5 200.001 L 848.5 200.001 L 848.5 200.001 Q 847.15 198.176 844.45 198.176 L 844.45 198.176 L 844.45 198.176 Q 840.95 198.176 839.6 200.401 L 839.6 200.401 L 839.6 200.401 Q 838.25 202.626 838.25 206.626 L 838.25 206.626 L 838.25 207.526 L 834.6 207.526 L 834.6 206.526 L 834.6 206.526 Q 834.6 200.826 836.925 197.976 L 836.925 197.976 L 836.925 197.976 Q 839.25 195.126 844.3 195.126 L 844.3 195.126 L 844.3 195.126 Q 848.8 195.126 851.15 197.801 L 851.15 197.801 L 851.15 197.801 Q 853.5 200.476 853.5 205.426 L 853.5 205.426 L 853.5 205.426 Q 853.5 207.726 852.85 209.776 L 852.85 209.776 L 852.85 209.776 Q 852.2 211.826 851.275 213.451 L 851.275 213.451 L 851.275 213.451 Q 850.35 215.076 848.7 217.626 L 848.7 217.626 L 838.6 232.926 L 852.65 232.926 L 852.65 236.026 L 834.3 236.026 L 834.3 236.026 Z  M 869 236.526 L 869 236.526 Q 859.4 236.526 859.4 224.576 L 859.4 224.576 L 859.4 206.976 L 859.4 206.976 Q 859.4 195.126 869 195.126 L 869 195.126 L 869 195.126 Q 878.7 195.126 878.7 206.976 L 878.7 206.976 L 878.7 224.576 L 878.7 224.576 Q 878.7 230.226 876.45 233.376 L 876.45 233.376 L 876.45 233.376 Q 874.2 236.526 869 236.526 L 869 236.526 L 869 236.526 Z  M 869 233.626 L 869 233.626 Q 872.25 233.626 873.6 231.276 L 873.6 231.276 L 873.6 231.276 Q 874.95 228.926 874.95 224.876 L 874.95 224.876 L 874.95 206.726 L 874.95 206.726 Q 874.95 202.626 873.625 200.326 L 873.625 200.326 L 873.625 200.326 Q 872.3 198.026 869 198.026 L 869 198.026 L 869 198.026 Q 865.75 198.026 864.425 200.326 L 864.425 200.326 L 864.425 200.326 Q 863.1 202.626 863.1 206.726 L 863.1 206.726 L 863.1 224.876 L 863.1 224.876 Q 863.1 233.626 869 233.626 L 869 233.626 L 869 233.626 Z  M 890.35 236.026 L 890.35 200.426 L 890.35 200.426 Q 889.85 201.126 888.275 201.701 L 888.275 201.701 L 888.275 201.701 Q 886.7 202.276 884.1 203.076 L 884.1 203.076 L 884.1 200.126 L 884.1 200.126 Q 885.9 199.626 887.9 198.426 L 887.9 198.426 L 887.9 198.426 Q 889.9 197.226 891.1 195.526 L 891.1 195.526 L 894.05 195.526 L 894.05 236.026 L 890.35 236.026 L 890.35 236.026 Z  M 913.2 236.526 L 913.2 236.526 Q 903.6 236.526 903.6 224.576 L 903.6 224.576 L 903.6 206.976 L 903.6 206.976 Q 903.6 195.126 913.2 195.126 L 913.2 195.126 L 913.2 195.126 Q 922.9 195.126 922.9 206.976 L 922.9 206.976 L 922.9 224.576 L 922.9 224.576 Q 922.9 230.226 920.65 233.376 L 920.65 233.376 L 920.65 233.376 Q 918.4 236.526 913.2 236.526 L 913.2 236.526 L 913.2 236.526 Z  M 913.2 233.626 L 913.2 233.626 Q 916.45 233.626 917.8 231.276 L 917.8 231.276 L 917.8 231.276 Q 919.15 228.926 919.15 224.876 L 919.15 224.876 L 919.15 206.726 L 919.15 206.726 Q 919.15 202.626 917.825 200.326 L 917.825 200.326 L 917.825 200.326 Q 916.5 198.026 913.2 198.026 L 913.2 198.026 L 913.2 198.026 Q 909.95 198.026 908.625 200.326 L 908.625 200.326 L 908.625 200.326 Q 907.3 202.626 907.3 206.726 L 907.3 206.726 L 907.3 224.876 L 907.3 224.876 Q 907.3 233.626 913.2 233.626 L 913.2 233.626 L 913.2 233.626 Z " fill-rule="evenodd" fill="rgb(255,255,255)"/></svg>