<?xml version="1.0" encoding="UTF-8" standalone="no"?>
<!-- Generator: Gravit.io -->
<svg xmlns="http://www.w3.org/2000/svg" xmlns:xlink="http://www.w3.org/1999/xlink" style="isolation:isolate" viewBox="0 0 400 400" width="400" height="400"><g><path d=" M 247.867 191.812 C 242.829 191.812 238.706 195.935 238.706 200.973 L 238.706 204.523 L 256.914 204.523 L 256.914 200.973 C 256.914 195.958 252.882 191.875 247.867 191.812 L 247.867 191.812 Z  M 203.321 253.192 L 146.293 253.192 L 150.186 263.727 L 203.55 263.727 C 203.435 262.926 203.435 262.239 203.435 261.437 L 203.321 253.192 L 203.321 253.192 Z  M 238.706 261.437 C 238.706 262.239 238.591 263.04 238.591 263.727 L 249.814 263.727 L 251.99 257.773 L 253.707 253.192 L 238.821 253.192 L 238.706 261.437 L 238.706 261.437 Z  M 203.321 244.031 L 203.321 233.496 L 139.078 233.496 L 142.972 244.031 L 203.321 244.031 Z  M 238.706 244.031 L 256.914 244.031 L 258.632 239.45 C 257.715 237.618 257.257 235.671 257.028 233.496 L 238.706 233.496 L 238.706 244.031 Z  M 230.346 303.235 L 235.271 303.235 L 239.164 292.7 L 160.721 292.7 L 164.615 303.235 L 230.346 303.235 L 230.346 303.235 Z  M 207.672 273.003 L 153.507 273.003 L 155.225 277.584 L 157.401 283.539 L 242.599 283.539 L 246.493 273.003 L 234.583 273.003 C 231.377 276.782 226.567 279.187 221.185 279.187 C 215.689 279.072 210.879 276.668 207.672 273.003 Z  M 200.115 199.599 C 186.487 199.599 173.204 196.965 160.721 191.927 L 123.962 191.927 L 128.543 204.638 L 141.368 204.638 L 141.368 213.799 L 131.864 213.799 L 132.322 215.173 L 135.643 224.334 L 203.206 224.334 L 203.206 213.799 L 178.929 213.799 L 178.929 204.638 L 203.206 204.638 L 203.206 199.599 L 200.115 199.599 L 200.115 199.599 Z  M 168.508 209.104 L 168.508 213.685 L 154.08 213.685 L 154.08 204.523 L 168.508 204.523 L 168.508 209.104 Z  M 238.706 213.799 L 256.914 213.799 L 256.914 224.334 L 238.706 224.334 L 238.706 213.799 Z  M 210.306 371.6 L 189.579 371.6 L 193.358 382.136 L 206.527 382.136 L 210.306 371.6 Z  M 199.885 400 L 203.092 391.297 L 196.794 391.297 L 199.885 400 Z  M 217.521 351.904 L 182.365 351.904 L 186.144 362.439 L 213.627 362.439 L 217.521 351.904 Z  M 171.829 322.932 L 228.056 322.932 L 231.95 312.396 L 167.936 312.396 L 171.829 322.932 Z  M 183.853 342.628 L 220.842 342.628 L 224.735 332.093 L 175.15 332.093 L 178.929 342.628 L 183.853 342.628 Z  M 266.19 209.104 L 266.19 231.892 C 266.19 232.35 266.304 232.808 266.304 233.267 C 266.648 235.099 267.564 236.702 268.938 237.847 C 270.312 238.992 272.144 239.794 274.091 239.794 C 278.443 239.794 281.993 236.244 281.993 231.892 L 281.993 191.011 L 281.191 191.011 L 277.412 190.667 C 277.068 190.667 276.839 190.553 276.496 190.553 C 269.396 189.407 262.64 186.774 256.799 182.651 C 256.227 182.995 255.54 183.453 254.967 183.796 C 261.831 186.627 266.308 193.32 266.304 200.744 L 266.304 204.294 L 266.19 209.104 L 266.19 209.104 Z  M 212.482 209.104 L 212.482 261.323 C 212.548 264.037 213.857 266.57 216.032 268.194 C 218.973 270.311 222.939 270.311 225.88 268.194 C 227.484 267.048 228.629 265.445 229.087 263.613 C 229.316 262.926 229.43 262.124 229.43 261.323 L 229.43 200.973 C 229.43 198.912 229.774 196.851 230.461 195.019 C 224.621 196.851 218.551 198.111 212.482 198.798 L 212.482 209.104 L 212.482 209.104 Z " fill="rgb(129,158,203)"/><path d=" M 320.355 145.09 C 320.355 130.432 311.652 117.034 298.139 111.079 L 296.307 110.278 L 295.62 108.445 L 295.276 107.415 L 294.704 105.812 L 294.818 104.781 C 295.162 101.575 295.276 98.368 295.276 95.162 C 295.276 42.714 252.562 0 200.115 0 C 147.667 0 104.953 42.714 104.953 95.162 C 104.953 98.025 105.067 101.002 105.411 104.094 L 105.525 105.125 L 104.953 106.728 C 104.724 107.3 104.495 107.873 104.38 108.445 L 103.693 110.278 L 101.861 111.079 C 88.358 116.997 79.638 130.347 79.645 145.09 C 79.708 164.875 95.267 181.139 115.03 182.078 L 116.748 182.078 C 117.778 182.078 118.695 182.078 119.611 181.964 C 119.84 181.964 120.183 181.964 120.412 181.849 C 121.672 181.735 122.932 181.506 124.191 181.277 C 124.42 181.162 124.764 181.162 124.993 181.048 C 130.604 179.788 135.872 177.154 140.338 173.49 L 143.086 171.2 L 145.949 173.146 C 151.217 176.811 156.828 179.903 162.668 182.422 C 167.02 184.254 171.486 185.857 176.066 187.003 C 183.853 189.064 191.984 190.094 200.229 190.094 C 201.374 190.094 202.634 190.094 203.779 189.98 C 205.726 189.865 207.672 189.751 209.619 189.522 C 225.651 187.919 240.996 182.307 254.395 173.146 L 257.257 171.2 L 259.891 173.375 C 265.044 177.612 270.999 180.361 277.412 181.391 L 279.702 181.735 C 280.504 181.849 281.191 181.849 281.993 181.849 C 282.451 181.849 282.909 181.964 283.481 181.964 L 284.626 181.964 C 285.313 181.964 286.001 181.964 286.688 181.849 L 289.665 181.506 C 290.238 181.391 290.696 181.391 291.268 181.277 C 308.245 177.52 320.336 162.478 320.355 145.09 L 320.355 145.09 Z  M 209.276 22.33 L 217.406 26.682 L 208.131 43.745 L 204.123 41.569 L 200.115 39.393 L 209.276 22.33 Z  M 138.735 65.502 L 131.635 59.548 L 144.002 44.546 L 147.552 47.524 L 151.102 50.501 L 138.735 65.502 L 138.735 65.502 Z  M 174.12 83.481 L 170.913 86.802 L 156.828 73.404 L 163.241 66.762 L 177.326 80.16 L 174.12 83.481 Z  M 179.158 39.737 L 175.494 42.599 L 163.47 27.369 L 170.684 21.643 L 182.708 36.874 L 179.158 39.737 Z  M 199.771 69.51 L 198.511 65.044 L 197.252 60.578 L 216.032 55.311 L 217.292 59.777 L 218.551 64.243 L 199.771 69.51 Z  M 233.667 90.81 L 228.858 82.909 L 245.462 72.831 L 247.867 76.725 L 250.272 80.618 L 233.667 90.81 L 233.667 90.81 Z  M 261.036 52.562 L 258.746 56.57 L 242.027 46.722 L 246.722 38.82 L 263.441 48.669 L 261.036 52.562 Z " fill="rgb(238,187,186)"/></g></svg>