<?xml version="1.0" standalone="no"?><!-- Generator: Gravit.io --><svg xmlns="http://www.w3.org/2000/svg" xmlns:xlink="http://www.w3.org/1999/xlink" style="isolation:isolate" viewBox="130 9 50 50" width="50" height="50"><path d=" M 144.13 9 C 136.339 9 130 15.339 130 23.13 L 130 44.87 C 130 52.661 136.339 59 144.13 59 L 165.87 59 C 173.661 59 180 52.661 180 44.87 L 180 23.13 C 180 15.339 173.661 9 165.87 9 L 144.13 9 Z  M 144.13 11.174 L 165.87 11.174 C 172.485 11.174 177.826 16.515 177.826 23.13 L 177.826 44.87 C 177.826 51.485 172.485 56.826 165.87 56.826 L 144.13 56.826 C 137.515 56.826 132.174 51.485 132.174 44.87 L 132.174 23.13 C 132.174 16.515 137.515 11.174 144.13 11.174 Z  M 169.13 17.696 C 167.93 17.696 166.957 18.669 166.957 19.87 C 166.957 21.07 167.93 22.043 169.13 22.043 C 170.331 22.043 171.304 21.07 171.304 19.87 C 171.304 18.669 170.331 17.696 169.13 17.696 Z  M 155 20.957 C 147.808 20.957 141.957 26.808 141.957 34 C 141.957 41.192 147.808 47.043 155 47.043 C 162.192 47.043 168.043 41.192 168.043 34 C 168.043 26.808 162.192 20.957 155 20.957 Z  M 155 23.13 C 161.016 23.13 165.87 27.984 165.87 34 C 165.87 40.016 161.016 44.87 155 44.87 C 148.984 44.87 144.13 40.016 144.13 34 C 144.13 27.984 148.984 23.13 155 23.13 Z " fill="rgb(0,0,0)"/></svg>