<?xml version="1.0" standalone="no"?><!-- Generator: Gravit.io --><svg xmlns="http://www.w3.org/2000/svg" xmlns:xlink="http://www.w3.org/1999/xlink" style="isolation:isolate" viewBox="0 0 200 200" width="200" height="200"><defs><clipPath id="_clipPath_K3b4CJrrEolog7mxhppNS5E6RpuHHgRg"><rect width="200" height="200"/></clipPath></defs><g clip-path="url(#_clipPath_K3b4CJrrEolog7mxhppNS5E6RpuHHgRg)"><rect width="200" height="200" style="fill:rgb(0,0,0)" fill-opacity="0"/><path d=" M 142.167 56.699 C 142.213 55.913 142.213 55.173 142.213 54.386 C 142.213 31.163 123.292 12.242 100.069 12.242 C 76.846 12.242 57.925 31.163 57.925 54.386 C 57.925 55.126 57.925 55.867 57.971 56.653 C 51.861 60.162 48.1 66.677 48.118 73.724 C 48.118 83.809 55.705 92.089 65.466 93.246 L 99.977 187.758 L 126.392 115.405 C 127.086 115.59 127.826 115.683 128.612 115.683 C 133.239 115.683 136.986 111.935 136.986 107.309 L 136.986 92.783 C 145.544 90.609 151.882 82.791 151.882 73.724 C 151.928 66.646 148.135 60.215 142.167 56.699 L 142.167 56.699 Z  M 131.712 107.309 C 131.711 108.502 131.016 109.584 129.932 110.081 C 128.848 110.578 127.574 110.399 126.669 109.622 C 126.15 109.161 125.794 108.544 125.652 107.864 C 125.605 107.679 125.605 107.541 125.605 107.356 L 125.605 95.374 C 125.605 92.413 123.801 89.915 121.211 88.851 C 121.442 88.712 121.673 88.573 121.905 88.388 C 124.171 90.008 126.762 91.025 129.491 91.442 C 129.63 91.442 129.723 91.488 129.862 91.488 L 131.342 91.627 L 131.666 91.627 L 131.666 107.309 L 131.712 107.309 Z  M 117.325 124.889 L 116.492 127.202 L 83.6 127.202 L 82.767 124.889 L 82.12 123.131 L 103.03 123.131 C 104.331 124.635 106.222 125.499 108.211 125.499 C 110.2 125.499 112.091 124.635 113.392 123.131 L 118.019 123.131 L 117.325 124.889 L 117.325 124.889 Z  M 108.535 149.037 L 108.165 150.055 L 91.927 150.055 L 91.557 149.037 L 90.447 145.984 L 109.599 145.984 L 108.535 149.037 L 108.535 149.037 Z  M 101.272 168.837 L 100.023 172.214 L 98.774 168.837 L 101.272 168.837 Z  M 102.567 165.275 L 97.525 165.275 L 96.044 161.204 L 104.094 161.204 L 102.567 165.275 Z  M 105.343 157.688 L 94.703 157.688 L 93.223 153.617 L 106.823 153.617 L 105.343 157.688 Z  M 101.365 94.726 L 101.365 96.669 L 92.02 96.669 L 92.02 100.185 L 101.365 100.185 L 101.365 104.256 L 75.227 104.256 L 74.857 103.192 L 73.746 100.185 L 77.401 100.185 L 77.401 96.669 L 72.451 96.669 L 70.647 91.765 L 84.849 91.765 C 89.66 93.708 94.795 94.726 100.069 94.726 L 101.365 94.726 L 101.365 94.726 Z  M 122.09 96.669 L 115.012 96.669 L 115.012 95.281 C 115.012 94.025 115.682 92.865 116.77 92.237 C 117.857 91.608 119.198 91.608 120.285 92.237 C 121.373 92.865 122.043 94.025 122.043 95.281 L 122.09 96.669 L 122.09 96.669 Z  M 122.09 104.302 L 115.012 104.302 L 115.012 100.231 L 122.043 100.231 L 122.09 104.302 L 122.09 104.302 Z  M 111.45 95.281 L 111.45 118.551 C 111.45 118.875 111.403 119.152 111.311 119.43 C 110.907 120.831 109.623 121.794 108.165 121.789 C 107.471 121.789 106.823 121.558 106.268 121.188 C 105.661 120.764 105.219 120.143 105.019 119.43 C 104.927 119.152 104.88 118.828 104.88 118.551 L 104.88 94.449 C 107.24 94.171 109.599 93.662 111.866 92.968 C 111.635 93.708 111.45 94.495 111.45 95.281 Z  M 76.522 107.864 L 101.365 107.864 L 101.365 111.935 L 78.003 111.935 L 76.522 107.864 L 76.522 107.864 Z  M 81.195 115.498 L 101.318 115.498 L 101.318 118.69 C 101.318 119.013 101.365 119.291 101.365 119.569 L 80.732 119.569 L 79.252 115.498 L 81.195 115.498 L 81.195 115.498 Z  M 110.941 142.422 L 89.152 142.422 L 87.671 138.351 L 112.421 138.351 L 110.941 142.422 Z  M 113.716 134.789 L 86.376 134.789 L 84.895 130.718 L 115.197 130.718 L 113.716 134.789 Z  M 115.012 111.935 L 115.012 107.864 L 122.09 107.864 C 122.136 108.697 122.367 109.437 122.691 110.131 L 122.043 111.889 L 115.012 111.889 L 115.012 111.935 Z  M 119.268 119.569 L 114.965 119.569 C 115.012 119.291 115.012 118.967 115.012 118.69 L 115.012 115.498 L 120.748 115.498 L 119.268 119.569 L 119.268 119.569 Z  M 135.274 87.694 C 135.089 87.741 134.858 87.787 134.673 87.787 C 134.303 87.833 133.886 87.926 133.516 87.926 C 133.239 87.926 133.007 87.972 132.73 87.972 L 131.758 87.972 C 131.481 87.972 131.157 87.926 130.879 87.926 C 130.602 87.88 130.278 87.88 130 87.833 C 127.512 87.422 125.18 86.352 123.246 84.734 L 122.228 83.855 L 121.118 84.641 C 115.937 88.203 110.015 90.378 103.816 90.979 C 103.076 91.072 102.336 91.118 101.596 91.118 C 101.133 91.118 100.671 91.164 100.208 91.164 C 95.216 91.161 90.277 90.154 85.682 88.203 C 83.415 87.232 81.241 86.029 79.205 84.595 L 78.095 83.809 L 77.077 84.687 C 75.366 86.122 73.33 87.093 71.156 87.602 C 71.063 87.648 70.925 87.648 70.832 87.694 C 70.369 87.787 69.861 87.88 69.352 87.926 C 69.259 87.926 69.12 87.972 69.028 87.972 C 68.658 88.018 68.288 88.018 67.918 88.018 L 67.27 88.018 C 66.669 87.972 66.113 87.926 65.512 87.833 C 58.633 86.655 53.598 80.702 53.577 73.724 C 53.577 68.033 56.954 62.898 62.135 60.585 L 62.829 60.261 L 63.106 59.521 C 63.199 59.29 63.291 59.059 63.338 58.827 L 63.569 58.272 L 63.523 57.856 C 63.43 56.653 63.338 55.497 63.338 54.386 C 63.338 34.078 79.853 17.609 100.115 17.609 C 120.424 17.609 136.893 34.124 136.893 54.386 C 136.893 55.589 136.847 56.838 136.708 58.087 L 136.662 58.504 L 136.893 59.151 C 136.94 59.29 136.986 59.429 137.032 59.521 L 137.31 60.261 L 138.004 60.585 C 143.22 62.868 146.582 68.03 146.562 73.724 C 146.608 80.57 141.704 86.307 135.274 87.694 L 135.274 87.694 Z  M 82.351 98.473 L 82.351 100.231 L 87.902 100.231 L 87.902 96.669 L 82.351 96.669 L 82.351 98.473 Z  M 103.678 26.213 L 106.823 27.925 L 103.215 34.54 L 100.069 32.829 L 103.678 26.213 Z  M 117.649 45.782 L 111.218 49.668 L 112.143 51.194 L 113.069 52.721 L 119.499 48.835 L 118.574 47.308 L 117.649 45.782 Z  M 87.347 27.092 L 85.959 28.202 L 90.586 34.124 L 93.408 31.903 L 88.735 25.982 L 87.347 27.092 Z  M 84.618 44.718 L 83.369 45.967 L 88.828 51.194 L 90.03 49.899 L 91.28 48.604 L 85.867 43.422 L 84.618 44.718 L 84.618 44.718 Z  M 117.14 34.124 L 116.261 35.65 L 122.737 39.49 L 123.616 37.964 L 124.541 36.437 L 118.065 32.597 L 117.14 34.124 Z  M 78.465 34.864 L 73.654 40.647 L 76.383 42.913 L 81.195 37.131 L 79.807 35.974 L 78.465 34.864 Z  M 99.93 44.533 L 98.959 41.109 L 106.222 39.074 L 107.193 42.497 L 99.93 44.533 Z " fill="rgb(0,0,0)"/></g></svg>