<?xml version="1.0" standalone="no"?><!-- Generator: Gravit.io --><svg xmlns="http://www.w3.org/2000/svg" xmlns:xlink="http://www.w3.org/1999/xlink" style="isolation:isolate" viewBox="12 5.156 55.844 55.844" width="55.844" height="55.844"><g><path d=" M 52.523 37.159 C 53.159 37.159 53.767 37.279 54.35 37.516 C 54.932 37.753 55.447 38.096 55.893 38.541 L 60.645 43.293 C 61.09 43.738 61.434 44.253 61.672 44.836 C 61.908 45.416 62.028 46.036 62.027 46.662 C 62.027 47.295 61.909 47.903 61.67 48.485 C 61.436 49.064 61.087 49.59 60.645 50.031 C 59.909 50.782 59.16 51.519 58.399 52.243 C 57.76 52.856 57.058 53.398 56.304 53.863 C 55.559 54.312 54.751 54.646 53.906 54.856 C 53.028 55.081 51.97 55.194 50.731 55.194 C 48.931 55.194 47.081 54.911 45.181 54.351 C 43.218 53.764 41.319 52.983 39.511 52.018 C 37.576 50.989 35.727 49.805 33.982 48.477 C 30.366 45.728 27.15 42.49 24.427 38.855 C 23.111 37.11 21.941 35.261 20.926 33.326 C 19.981 31.53 19.214 29.646 18.638 27.7 C 18.09 25.829 17.816 24.014 17.816 22.257 C 17.816 21.019 17.929 19.964 18.151 19.092 C 18.362 18.249 18.696 17.441 19.143 16.696 C 19.605 15.94 20.149 15.238 20.764 14.601 C 21.404 13.931 22.143 13.187 22.978 12.366 C 23.425 11.919 23.935 11.575 24.512 11.328 C 25.093 11.083 25.717 10.959 26.347 10.962 C 27.612 10.965 28.824 11.47 29.717 12.366 L 34.468 17.117 C 34.913 17.563 35.256 18.079 35.493 18.661 C 35.73 19.241 35.851 19.861 35.85 20.487 C 35.85 21.12 35.741 21.686 35.524 22.182 C 35.309 22.679 35.043 23.128 34.727 23.532 C 34.414 23.932 34.062 24.3 33.678 24.633 C 33.297 24.964 32.948 25.288 32.631 25.604 C 32.334 25.898 32.066 26.22 31.832 26.566 C 31.617 26.889 31.507 27.239 31.507 27.613 C 31.507 28.161 31.702 28.629 32.091 29.018 L 43.992 40.919 C 44.38 41.307 44.849 41.503 45.396 41.503 C 45.772 41.503 46.121 41.394 46.446 41.177 C 46.771 40.961 47.089 40.696 47.405 40.38 C 47.722 40.063 48.046 39.713 48.378 39.331 C 48.708 38.948 49.076 38.602 49.479 38.284 C 49.882 37.966 50.332 37.699 50.829 37.485 C 51.327 37.269 51.89 37.159 52.524 37.159 L 52.523 37.159 Z  M 50.731 52.429 C 51.769 52.429 52.637 52.33 53.335 52.136 C 54.005 51.955 54.641 51.671 55.223 51.294 C 55.785 50.926 56.331 50.472 56.864 49.924 C 57.398 49.377 58.009 48.758 58.701 48.066 C 59.089 47.678 59.284 47.21 59.284 46.662 C 59.284 46.403 59.18 46.096 58.973 45.742 C 58.734 45.35 58.463 44.978 58.161 44.632 C 57.831 44.244 57.46 43.842 57.051 43.431 C 56.654 43.035 56.251 42.647 55.841 42.266 C 55.475 41.927 55.108 41.588 54.739 41.251 C 54.403 40.941 54.139 40.693 53.95 40.507 C 53.576 40.124 53.06 39.913 52.526 39.924 C 52.15 39.924 51.804 40.032 51.488 40.249 C 51.171 40.465 50.853 40.73 50.539 41.047 C 50.222 41.363 49.896 41.712 49.557 42.094 C 49.217 42.476 48.845 42.827 48.443 43.142 C 48.03 43.466 47.576 43.735 47.093 43.941 C 46.597 44.157 46.032 44.267 45.398 44.267 C 44.136 44.268 42.926 43.77 42.029 42.883 L 30.128 30.982 C 29.685 30.542 29.336 30.017 29.102 29.439 C 28.865 28.859 28.744 28.239 28.745 27.613 C 28.745 26.982 28.854 26.414 29.071 25.918 C 29.287 25.421 29.552 24.971 29.869 24.568 C 30.185 24.165 30.536 23.792 30.917 23.456 C 31.299 23.118 31.646 22.789 31.964 22.472 C 32.282 22.156 32.547 21.839 32.763 21.523 C 32.979 21.208 33.089 20.861 33.089 20.487 C 33.089 19.925 32.893 19.449 32.504 19.06 C 32.25 18.802 32.002 18.54 31.759 18.272 L 30.745 17.17 C 30.364 16.76 29.975 16.357 29.578 15.962 C 29.194 15.575 28.794 15.204 28.379 14.85 C 28.032 14.55 27.66 14.279 27.267 14.041 C 26.915 13.832 26.609 13.728 26.35 13.728 C 25.803 13.728 25.334 13.922 24.945 14.311 C 24.255 15.002 23.639 15.614 23.099 16.146 C 22.586 16.647 22.123 17.197 21.717 17.788 C 21.327 18.366 21.035 19.005 20.853 19.679 C 20.659 20.377 20.561 21.238 20.561 22.26 C 20.561 23.871 20.825 25.534 21.351 27.249 C 21.877 28.963 22.604 30.677 23.532 32.389 C 24.496 34.16 25.598 35.854 26.825 37.454 C 28.096 39.121 29.481 40.698 30.971 42.173 C 32.458 43.646 34.041 45.017 35.712 46.277 C 37.311 47.488 39.001 48.575 40.766 49.527 C 42.39 50.407 44.098 51.123 45.863 51.665 C 47.554 52.177 49.175 52.429 50.731 52.429 L 50.731 52.429 Z " fill-rule="evenodd" fill="rgb(35,31,32)"/><rect x="12" y="5.156" width="55.844" height="55.844" transform="matrix(1,0,0,1,0,0)" fill="none"/></g></svg>