<?xml version="1.0" standalone="no"?><!-- Generator: Gravit.io --><svg xmlns="http://www.w3.org/2000/svg" xmlns:xlink="http://www.w3.org/1999/xlink" style="isolation:isolate" viewBox="26 6 20 45" width="20" height="45"><path d=" M 36 6 C 30.488 6 26 10.209 26 15.377 C 26 19.564 28.95 23.121 33 24.319 L 33 45.616 L 36 51 L 39 45.616 L 39 24.32 C 43.05 23.121 46 19.564 46 15.377 C 46 10.209 41.512 6 36 6 Z  M 36 7.875 C 40.43 7.875 44 11.223 44 15.377 C 44 19.532 40.43 22.879 36 22.879 C 31.57 22.879 28 19.532 28 15.377 C 28 11.223 31.57 7.875 36 7.875 Z  M 36 9.751 C 32.7 9.751 30 12.283 30 15.377 C 29.996 15.715 30.184 16.029 30.496 16.202 C 30.809 16.37 31.191 16.37 31.504 16.202 C 31.816 16.029 32.004 15.714 32 15.377 C 32 13.297 33.781 11.626 36 11.626 C 36.36 11.63 36.695 11.454 36.879 11.161 C 37.059 10.869 37.059 10.509 36.879 10.216 C 36.695 9.923 36.359 9.747 36 9.751 Z  M 35 24.755 L 37 24.755 L 37 45.154 L 36 46.953 L 35 45.154 L 35 24.755 Z " fill="rgb(0,0,0)"/></svg>