<?xml version="1.0" standalone="no"?><!-- Generator: Gravit.io --><svg xmlns="http://www.w3.org/2000/svg" xmlns:xlink="http://www.w3.org/1999/xlink" style="isolation:isolate" viewBox="0 0 500 1920" width="500" height="1920"><defs><clipPath id="_clipPath_P2Tr8UQFyzADsBcDXy5JCjpuw2Iha92k"><rect width="500" height="1920"/></clipPath></defs><g clip-path="url(#_clipPath_P2Tr8UQFyzADsBcDXy5JCjpuw2Iha92k)"><rect width="500" height="1920" style="fill:rgb(0,0,0)" fill-opacity="0"/><path d=" M 290.164 1632.606 C 290.16 1637.032 287.834 1641.051 284.208 1642.896 C 280.583 1644.742 276.32 1644.076 273.294 1641.193 C 271.557 1639.479 270.364 1637.191 269.889 1634.666 C 269.734 1633.98 269.734 1633.464 269.734 1632.777 L 269.734 1588.297 C 269.734 1577.306 263.698 1568.032 255.03 1564.082 C 255.804 1563.567 256.578 1563.052 257.352 1562.365 C 264.936 1568.376 273.603 1572.154 282.735 1573.699 C 283.2 1573.699 283.509 1573.871 283.973 1573.871 L 288.926 1574.386 L 290.01 1574.386 L 290.01 1632.606 L 290.164 1632.606 Z  M 242.029 1697.866 L 239.243 1706.453 L 129.197 1706.453 L 126.411 1697.866 L 124.244 1691.34 L 194.203 1691.34 C 198.557 1696.924 204.884 1700.133 211.538 1700.133 C 218.193 1700.133 224.519 1696.924 228.873 1691.34 L 244.351 1691.34 L 242.029 1697.866 L 242.029 1697.866 Z  M 212.622 1787.513 L 211.383 1791.292 L 157.057 1791.292 L 155.819 1787.513 L 152.104 1776.179 L 216.181 1776.179 L 212.622 1787.513 L 212.622 1787.513 Z  M 188.322 1861.017 L 184.143 1873.554 L 179.964 1861.017 L 188.322 1861.017 Z  M 192.656 1847.793 L 175.785 1847.793 L 170.832 1832.681 L 197.763 1832.681 L 192.656 1847.793 Z  M 201.942 1819.628 L 166.344 1819.628 L 161.391 1804.515 L 206.895 1804.515 L 201.942 1819.628 Z  M 188.631 1585.893 L 188.631 1593.106 L 157.367 1593.106 L 157.367 1606.158 L 188.631 1606.158 L 188.631 1621.271 L 101.183 1621.271 L 99.945 1617.321 L 96.23 1606.158 L 108.457 1606.158 L 108.457 1593.106 L 91.896 1593.106 L 85.86 1574.902 L 133.376 1574.902 C 149.473 1582.115 166.653 1585.893 184.298 1585.893 L 188.631 1585.893 L 188.631 1585.893 Z  M 257.971 1593.106 L 234.29 1593.106 L 234.29 1587.954 C 234.29 1583.291 236.532 1578.982 240.172 1576.65 C 243.811 1574.319 248.295 1574.319 251.935 1576.65 C 255.574 1578.982 257.816 1583.291 257.816 1587.954 L 257.971 1593.106 L 257.971 1593.106 Z  M 257.971 1621.443 L 234.29 1621.443 L 234.29 1606.33 L 257.816 1606.33 L 257.971 1621.443 L 257.971 1621.443 Z  M 222.373 1587.954 L 222.373 1674.338 C 222.373 1675.54 222.218 1676.571 221.908 1677.601 C 220.559 1682.803 216.262 1686.379 211.383 1686.36 C 209.062 1686.36 206.895 1685.501 205.038 1684.127 C 203.005 1682.555 201.527 1680.248 200.859 1677.601 C 200.549 1676.571 200.394 1675.368 200.394 1674.338 L 200.394 1584.862 C 208.288 1583.832 216.181 1581.943 223.766 1579.367 C 222.992 1582.115 222.373 1585.034 222.373 1587.954 Z  M 105.517 1634.666 L 188.631 1634.666 L 188.631 1649.779 L 110.469 1649.779 L 105.517 1634.666 L 105.517 1634.666 Z  M 121.149 1663.003 L 188.477 1663.003 L 188.477 1674.853 C 188.477 1676.055 188.631 1677.086 188.631 1678.116 L 119.601 1678.116 L 114.648 1663.003 L 121.149 1663.003 L 121.149 1663.003 Z  M 220.67 1762.955 L 147.77 1762.955 L 142.818 1747.842 L 225.623 1747.842 L 220.67 1762.955 Z  M 229.957 1734.618 L 138.484 1734.618 L 133.531 1719.505 L 234.909 1719.505 L 229.957 1734.618 Z  M 234.29 1649.779 L 234.29 1634.666 L 257.971 1634.666 C 258.126 1637.758 258.9 1640.506 259.983 1643.082 L 257.816 1649.608 L 234.29 1649.608 L 234.29 1649.779 Z  M 248.53 1678.116 L 234.136 1678.116 C 234.29 1677.086 234.29 1675.884 234.29 1674.853 L 234.29 1663.003 L 253.483 1663.003 L 248.53 1678.116 L 248.53 1678.116 Z  M 125.018 1599.804 L 125.018 1606.33 L 143.591 1606.33 L 143.591 1593.106 L 125.018 1593.106 L 125.018 1599.804 Z " fill-rule="evenodd" fill="rgb(0,0,0)"/><path d=" M 201.595 46.446 L 216.74 52.57 L 201.61 80.521 L 186.465 74.397 L 201.595 46.446 Z  M 271.981 122.431 L 242.954 140.021 L 247.676 145.994 L 252.397 151.966 L 281.425 134.376 L 276.703 128.404 L 271.981 122.431 Z  M 125.529 54.466 L 119.335 59.369 L 142.496 82.254 L 155.1 72.434 L 131.723 49.562 L 125.529 54.466 Z  M 117.383 127.066 L 111.873 132.498 L 138.743 152.328 L 144.024 146.72 L 149.522 141.1 L 122.88 121.446 L 117.383 127.066 L 117.383 127.066 Z  M 266.558 75.04 L 262.85 81.503 L 303.298 110.955 L 307.006 104.493 L 310.93 98.017 L 270.482 68.565 L 266.558 75.04 Z  M 86.062 88.564 L 65.095 113.447 L 78.439 121.948 L 99.406 97.065 L 92.62 92.727 L 86.062 88.564 Z  M 188.875 122.152 L 183.442 108.459 L 216.843 98.187 L 222.277 111.88 L 188.875 122.152 Z " fill-rule="evenodd" fill="rgb(0,0,0)"/><g><path d=" M 191.657 340.849 L 184.367 340.849 C 122.399 340.849 72.279 379.435 72.279 427.142 L 72.279 454.503 C 72.279 475.971 77.382 483.268 89.046 491.406 C 98.888 498.281 114.745 495.896 124.404 489.862 C 134.611 483.408 140.078 472.183 151.014 469.377 C 165.23 465.588 179.082 477.374 181.451 488.88 C 183.82 500.386 179.993 512.172 182.727 523.538 C 185.461 534.903 200.041 546.409 213.893 542.059 C 222.641 539.393 227.015 531.536 228.109 524.239 C 229.385 516.943 228.473 509.506 231.025 502.491 C 233.577 495.475 241.414 488.74 250.891 489.301 C 259.093 489.862 265.29 495.615 268.023 501.649 C 273.309 513.435 263.102 544.865 284.244 544.865 C 299.007 544.865 303.746 533.219 303.746 518.346 L 303.746 427.002 C 303.746 379.576 253.443 340.849 191.657 340.849 L 191.657 340.849 Z  M 202.775 477.094" fill="none" vector-effect="non-scaling-stroke" stroke-width="10" stroke="rgb(0,0,0)" stroke-linejoin="miter" stroke-linecap="butt" stroke-miterlimit="4"/></g><path d=" M 303.874 948.696 C 303.265 948.838 302.504 948.98 301.895 948.98 C 300.677 949.122 299.307 949.406 298.089 949.406 C 297.175 949.406 296.414 949.548 295.501 949.548 L 292.303 949.548 C 291.39 949.548 290.324 949.406 289.411 949.406 C 288.497 949.264 287.431 949.264 286.518 949.122 C 278.33 947.859 270.654 944.571 264.289 939.6 L 260.94 936.9 L 257.286 939.316 C 240.234 950.259 220.746 956.938 200.344 958.786 C 197.908 959.07 195.472 959.212 193.036 959.212 C 191.513 959.212 189.991 959.354 188.468 959.354 C 172.041 959.344 155.783 956.251 140.662 950.259 C 133.202 947.274 126.046 943.579 119.347 939.174 L 115.693 936.758 L 112.343 939.458 C 106.71 943.864 100.011 946.848 92.855 948.411 C 92.551 948.553 92.094 948.553 91.789 948.696 C 90.267 948.98 88.592 949.264 86.917 949.406 C 86.613 949.406 86.156 949.548 85.852 949.548 C 84.634 949.69 83.416 949.69 82.198 949.69 L 80.066 949.69 C 78.087 949.548 76.26 949.406 74.281 949.122 C 51.643 945.503 35.07 927.215 35 905.776 C 35 888.295 46.114 872.52 63.166 865.414 L 65.45 864.42 L 66.364 862.146 C 66.668 861.435 66.973 860.725 67.125 860.014 L 67.886 858.309 L 67.734 857.029 C 67.429 853.334 67.125 849.781 67.125 846.371 C 67.125 783.981 121.478 733.387 188.164 733.387 C 255.002 733.387 309.203 784.123 309.203 846.371 C 309.203 850.066 309.051 853.903 308.594 857.74 L 308.442 859.019 L 309.203 861.009 C 309.355 861.435 309.508 861.861 309.66 862.146 L 310.573 864.42 L 312.857 865.414 C 330.024 872.427 341.09 888.285 341.023 905.776 C 341.176 926.809 325.037 944.432 303.874 948.696 L 303.874 948.696 Z " fill="none" vector-effect="non-scaling-stroke" stroke-width="10" stroke="rgb(0,0,0)" stroke-linejoin="miter" stroke-linecap="butt" stroke-miterlimit="4"/><path d=" M 303.874 1363.184 C 303.265 1363.327 302.504 1363.469 301.895 1363.469 C 300.677 1363.611 299.307 1363.895 298.089 1363.895 C 297.175 1363.895 296.414 1364.037 295.501 1364.037 L 292.303 1364.037 C 291.39 1364.037 290.324 1363.895 289.411 1363.895 C 288.497 1363.753 287.431 1363.753 286.518 1363.611 C 278.33 1362.348 270.654 1359.06 264.289 1354.089 L 260.94 1351.389 L 257.286 1353.805 C 240.234 1364.748 220.746 1371.427 200.344 1373.275 C 197.908 1373.559 195.472 1373.701 193.036 1373.701 C 191.513 1373.701 189.991 1373.843 188.468 1373.843 C 172.041 1373.833 155.783 1370.74 140.662 1364.748 C 133.202 1361.763 126.046 1358.068 119.347 1353.663 L 115.693 1351.247 L 112.343 1353.947 C 106.71 1358.352 100.011 1361.337 92.855 1362.9 C 92.551 1363.042 92.094 1363.042 91.789 1363.184 C 90.267 1363.469 88.592 1363.753 86.917 1363.895 C 86.613 1363.895 86.156 1364.037 85.852 1364.037 C 84.634 1364.179 83.416 1364.179 82.198 1364.179 L 80.066 1364.179 C 78.087 1364.037 76.26 1363.895 74.281 1363.611 C 51.643 1359.992 35.07 1341.704 35 1320.265 C 35 1302.784 46.114 1287.009 63.166 1279.903 L 65.45 1278.909 L 66.364 1276.635 C 66.668 1275.924 66.973 1275.213 67.125 1274.503 L 67.886 1272.797 L 67.734 1271.518 C 67.429 1267.823 67.125 1264.27 67.125 1260.86 C 67.125 1198.47 121.478 1147.876 188.164 1147.876 C 255.002 1147.876 309.203 1198.612 309.203 1260.86 C 309.203 1264.555 309.051 1268.392 308.594 1272.229 L 308.442 1273.508 L 309.203 1275.498 C 309.355 1275.924 309.508 1276.35 309.66 1276.635 L 310.573 1278.909 L 312.857 1279.903 C 330.024 1286.916 341.09 1302.774 341.023 1320.265 C 341.176 1341.298 325.037 1358.921 303.874 1363.184 L 303.874 1363.184 Z " fill="none" vector-effect="non-scaling-stroke" stroke-width="10" stroke="rgb(0,0,0)" stroke-linejoin="miter" stroke-linecap="butt" stroke-miterlimit="4"/><line x1="188.012" y1="180.089" x2="188.012" y2="313.087" vector-effect="non-scaling-stroke" stroke-width="10" stroke-dasharray="0.5,15" stroke="rgb(0,0,0)" stroke-linejoin="miter" stroke-linecap="round" stroke-miterlimit="3"/><line x1="188.012" y1="572.627" x2="188.012" y2="705.625" vector-effect="non-scaling-stroke" stroke-width="10" stroke-dasharray="0.5,15" stroke="rgb(0,0,0)" stroke-linejoin="miter" stroke-linecap="round" stroke-miterlimit="3"/><line x1="188.012" y1="987.116" x2="188.012" y2="1120.114" vector-effect="non-scaling-stroke" stroke-width="10" stroke-dasharray="0.5,15" stroke="rgb(0,0,0)" stroke-linejoin="miter" stroke-linecap="round" stroke-miterlimit="3"/><line x1="188.012" y1="1401.605" x2="188.012" y2="1534.603" vector-effect="non-scaling-stroke" stroke-width="10" stroke-dasharray="0.5,15" stroke="rgb(0,0,0)" stroke-linejoin="miter" stroke-linecap="round" stroke-miterlimit="3"/><g transform="matrix(1.291,0,0,1.291,127.309,1000.993)"><text transform="matrix(1,0,0,1,87.05,44.254)" style="font-family:&quot;Open Sans&quot;;font-weight:700;font-size:40px;font-style:italic;fill:#980000;stroke:none;">Kugel:</text><text transform="matrix(1,0,0,1,122.958,98.727)" style="font-family:&quot;Open Sans&quot;;font-weight:700;font-size:40px;font-style:italic;fill:#980000;stroke:none;">2€</text></g><g transform="matrix(1.291,0,0,1.291,157.404,193.966)"><text transform="matrix(1,0,0,1,78.363,42.754)" style="font-family:&quot;Open Sans&quot;;font-weight:700;font-size:40px;font-style:italic;fill:#980000;stroke:none;">Extras:</text><text transform="matrix(1,0,0,1,82.855,97.227)" style="font-family:&quot;Open Sans&quot;;font-weight:700;font-size:40px;font-style:italic;fill:#980000;stroke:none;">+0,50€</text></g><g transform="matrix(1.291,0,0,1.291,157.404,572.627)"><text transform="matrix(1,0,0,1,57.259,42.754)" style="font-family:&quot;Open Sans&quot;;font-weight:700;font-size:40px;font-style:italic;fill:#980000;stroke:none;">2 Kugeln:</text><text transform="matrix(1,0,0,1,93.87,97.227)" style="font-family:&quot;Open Sans&quot;;font-weight:700;font-size:40px;font-style:italic;fill:#980000;stroke:none;">3,50€</text></g></g></svg>